<svg width="22.545807" height="22.728455" viewBox="0 0 22.5458 22.7285" fill="none" xmlns="http://www.w3.org/2000/svg" xmlns:xlink="http://www.w3.org/1999/xlink">
	<desc>
			Created with Pixso.
	</desc>
	<g opacity="0.800000">
		<path d="M14.3846 19.186L20.544 12.77C20.6369 12.6733 20.6101 12.5142 20.4905 12.4533L15.9014 10.115C15.7819 10.0541 15.6374 10.1259 15.6137 10.2579L14.0435 19.0122C14.0085 19.207 14.2475 19.3288 14.3846 19.186Z" fill-rule="evenodd" fill="url(#paint_linear_2_30_0)"/>
	</g>
	<path d="M14.6133 18.2996L19.2503 12.6522L16.4565 11.2287L14.6133 18.2996Z" fill-rule="evenodd" fill="#10A255"/>
	<g opacity="0.800000">
		<path d="M12.0776 18.4499L12.8396 6.81853C12.8571 6.55101 12.6117 6.34232 12.3505 6.40262L5.80463 7.91386C5.54341 7.97417 5.41431 8.26933 5.54733 8.50209L11.3311 18.6222C11.5278 18.9664 12.0516 18.8455 12.0776 18.4499Z" fill-rule="evenodd" fill="url(#paint_linear_2_27_0)"/>
	</g>
	<path d="M11.4307 17.0746L11.1419 7.8632L7.65227 8.66886L11.4307 17.0746Z" fill-rule="evenodd" fill="#F0EB11"/>
	<rect x="10.244843" y="5.000000" rx="0.200000" width="8.954400" height="1.026869" transform="rotate(5.31853 10.244843 5.000000)" fill="#3178C6"/>
	<rect x="13.965591" y="6.027374" rx="0.200000" width="1.019952" height="12.920753" transform="rotate(6.38128 13.965591 6.027374)" fill="#3178C6"/>
	<path d="M15.6787 13.4384C15.6787 14.0183 15.1989 14.4785 14.4336 14.4785C13.9135 14.4785 13.4692 14.2685 13.1494 13.934L13.424 13.6191C13.6889 13.8938 14.0588 14.0732 14.4384 14.0732C14.9182 14.0732 15.2087 13.8339 15.2087 13.4738C15.2087 13.0991 14.9438 12.9782 14.5984 12.8232L14.0686 12.5937C13.7292 12.4484 13.3239 12.1884 13.3239 11.6538C13.3239 11.0886 13.8134 10.6784 14.4787 10.6784C14.9133 10.6784 15.299 10.864 15.5591 11.1337L15.3137 11.4292C15.0891 11.2192 14.8193 11.0837 14.4787 11.0837C14.0637 11.0837 13.7939 11.2937 13.7939 11.6232C13.7939 11.9785 14.1137 12.114 14.3994 12.2336L14.9243 12.4582C15.3491 12.6438 15.6787 12.894 15.6787 13.4384Z" fill="#3178C6"/>
	<defs>
		<linearGradient id="paint_linear_2_30_0" x1="20.138321" y1="21.154221" x2="20.138321" y2="33.692505" gradientUnits="userSpaceOnUse">
			<stop stop-color="#35495E" stop-opacity="0.862745"/>
			<stop offset="1.000000" stop-color="#10ED8A"/>
		</linearGradient>
		<linearGradient id="paint_linear_2_27_0" x1="20.875320" y1="18.763893" x2="20.875320" y2="36.030350" gradientUnits="userSpaceOnUse">
			<stop offset="0.010967" stop-color="#BD34FE"/>
			<stop offset="1.000000" stop-color="#49C7FF"/>
		</linearGradient>
	</defs>
</svg>
