<?xml version="1.0" standalone="no"?><!DOCTYPE svg PUBLIC "-//W3C//DTD SVG 1.1//EN" "http://www.w3.org/Graphics/SVG/1.1/DTD/svg11.dtd"><svg t="1665741283180" class="icon" viewBox="0 0 1024 1024" version="1.1" xmlns="http://www.w3.org/2000/svg" p-id="5993" xmlns:xlink="http://www.w3.org/1999/xlink" width="128" height="128"><path d="M870.016 163.008l-354.016 168A64.768 64.768 0 0 0 480 320a63.968 63.968 0 1 0 0 128c33.6 0 61.504-26.016 64-59.008l194.016-92C796.096 321.504 832 353.504 832 384c0 60.384-136.864 128-320 128S192 444.384 192 384s136.864-128 320-128c5.504 0 10.496-0.128 16 0l112.992-52.992A775.168 775.168 0 0 0 512 192C293.12 192 128 274.496 128 384v320c0 31.616 14.24 60.64 36 84 21.76 23.36 51.36 42.24 86.016 58.016C319.232 877.504 410.88 896 512 896c101.12 0 192.736-18.496 262.016-50.016 34.624-15.744 64.224-34.624 85.984-57.984C881.76 764.64 896 735.616 896 704V384c0-47.264-31.264-89.28-84-122.016l84.992-40.96zM192 492.992c32.512 24.512 76.128 44.64 128 59.008v252.992c-16-4.992-30.624-10.88-44-16.992-28.992-13.248-51.136-29.12-64.992-44C197.12 729.12 192 716.64 192 704z m640 0V704c0 12.64-5.12 25.12-19.008 40-13.856 14.88-36 30.72-64.992 44-13.376 6.112-28 12-44 16.992V552c51.872-14.4 95.488-34.496 128-59.008z m-448 72.992A780.8 780.8 0 0 0 512 576a780.8 780.8 0 0 0 128-10.016v254.016c-39.36 7.36-82.496 12-128 12-45.504 0-88.64-4.64-128-12z" p-id="5994"></path></svg>