<?xml version="1.0" standalone="no"?><!DOCTYPE svg PUBLIC "-//W3C//DTD SVG 1.1//EN" "http://www.w3.org/Graphics/SVG/1.1/DTD/svg11.dtd"><svg t="1667440727910" class="icon" viewBox="0 0 1024 1024" version="1.1" xmlns="http://www.w3.org/2000/svg" p-id="4949" xmlns:xlink="http://www.w3.org/1999/xlink" width="128" height="128"><path d="M512 64a448 448 0 1 1 0 896A448 448 0 0 1 512 64z m1.856 128L361.6 279.552h-0.192l0.448 0.192L236.8 352.064v319.872L513.856 832l276.992-160h-0.128v-320L665.6 279.808l0.32-0.192h0.256L513.856 192zM281.792 405.056l209.536 120.96v241.088l-109.952-63.552V596.224L281.792 539.52V405.056z m464 0.064v134.848l-98.816 56.32v106.88l-110.656 63.936V526.208l209.536-121.088zM620.608 305.536l103.936 60.032-210.56 121.536-210.56-121.6 103.616-59.84 106.624 61.312 106.944-61.44z" p-id="4950"></path></svg>