<?xml version="1.0" standalone="no"?><!DOCTYPE svg PUBLIC "-//W3C//DTD SVG 1.1//EN" "http://www.w3.org/Graphics/SVG/1.1/DTD/svg11.dtd"><svg t="1666081668063" class="icon" viewBox="0 0 1024 1024" version="1.1" xmlns="http://www.w3.org/2000/svg" p-id="5212" xmlns:xlink="http://www.w3.org/1999/xlink" width="128" height="128"><path d="M512 512m-384 0a384 384 0 1 0 768 0 384 384 0 1 0-768 0Z" fill="#D9D9D9" p-id="5213"></path><path d="M640 384m-42.672 0a42.672 42.672 0 1 0 85.344 0 42.672 42.672 0 1 0-85.344 0Z" fill="#807A6E" p-id="5214"></path><path d="M384 384m-42.672 0a42.672 42.672 0 1 0 85.344 0 42.672 42.672 0 1 0-85.344 0Z" fill="#807A6E" p-id="5215"></path><path d="M469.328 853.328a42.72 42.72 0 0 1-42.656-42.656v-85.344H512v85.344a42.72 42.72 0 0 1-42.672 42.656zM554.672 853.328A42.72 42.72 0 0 1 512 810.672v-85.344h85.328v85.344a42.72 42.72 0 0 1-42.656 42.656z" fill="#F5F5F5" p-id="5216"></path><path d="M426.624 768.016a125.168 125.168 0 0 1-27.2-2.992A127.68 127.68 0 0 1 416 512.864h191.584a128.032 128.032 0 0 1 91.12 48.8 128.224 128.224 0 0 1-74.128 203.36 125.616 125.616 0 0 1-79.744-8.544 79.84 79.84 0 0 0-65.664 0 125.952 125.952 0 0 1-52.544 11.536z" fill="#F8D5B9" p-id="5217"></path><path d="M512 597.328m-128 0a128 128 0 1 0 256 0 128 128 0 1 0-256 0Z" fill="#807A6E" p-id="5218"></path><path d="M661.328 362.672m-21.328 0a21.328 21.328 0 1 0 42.656 0 21.328 21.328 0 1 0-42.656 0Z" fill="#F5F5F5" p-id="5219"></path><path d="M405.328 362.672m-21.328 0a21.328 21.328 0 1 0 42.656 0 21.328 21.328 0 1 0-42.656 0Z" fill="#F5F5F5" p-id="5220"></path><path d="M640 330.672A53.328 53.328 0 1 0 693.328 384 53.376 53.376 0 0 0 640 330.672zM640 416a32 32 0 1 1 32-32 32.048 32.048 0 0 1-32 32zM384 437.328A53.328 53.328 0 1 0 330.672 384 53.376 53.376 0 0 0 384 437.328zM384 352a32 32 0 1 1-32 32 32.048 32.048 0 0 1 32-32z" fill="#231F20" p-id="5221"></path><path d="M938.672 586.672H899.36a394.72 394.72 0 0 0 6.752-64h32.544a10.672 10.672 0 0 0 0-21.344H906.24A395.168 395.168 0 0 0 643.536 139.792a10.672 10.672 0 0 0-7.072 20.128A373.472 373.472 0 0 1 884.48 501.328H768a10.672 10.672 0 0 0 0 21.344h116.8a373.68 373.68 0 0 1-6.976 64H768A10.672 10.672 0 1 0 768 608h104.368a372.8 372.8 0 0 1-720.736 0H256a10.672 10.672 0 1 0 0-21.328H146.192a373.68 373.68 0 0 1-6.992-64H256a10.672 10.672 0 0 0 0-21.344H139.2A373.312 373.312 0 0 1 594.96 147.92a10.656 10.656 0 1 0 4.752-20.8A394.608 394.608 0 0 0 117.872 501.328H85.328a10.672 10.672 0 0 0 0 21.344h32.544a394.72 394.72 0 0 0 6.768 64H85.328a10.672 10.672 0 0 0 0 21.328h44.32a394.08 394.08 0 0 0 764.72 0h44.304a10.672 10.672 0 0 0 0-21.328z" fill="#231F20" p-id="5222"></path><path d="M469.328 864A52.384 52.384 0 0 0 512 840.992 52.384 52.384 0 0 0 554.672 864 53.376 53.376 0 0 0 608 810.672v-33.152a136 136 0 0 0 18.88-2.064 137.968 137.968 0 0 0-13.68-272.256 137.28 137.28 0 0 0-202.224-0.208 137.04 137.04 0 0 0-120.672 161.408 131.888 131.888 0 0 0 5.664 21.824 10.656 10.656 0 1 0 20.08-7.12 111.376 111.376 0 0 1-4.752-18.352 116.224 116.224 0 0 1 81.344-132.768 137.056 137.056 0 0 0-19.312 69.344 138.688 138.688 0 0 0 242.048 92.464 10.688 10.688 0 0 0-15.92-14.24 116.64 116.64 0 1 1 23.2-39.088 10.64 10.64 0 1 0 20.096 7.072A135.984 135.984 0 0 0 631.36 528a117.12 117.12 0 1 1-82.144 218.768 90.784 90.784 0 0 0-74.464 0.016 116.48 116.48 0 0 1-126.288-19.472 10.672 10.672 0 1 0-14.256 15.872 137.52 137.52 0 0 0 62.88 32.272 136 136 0 0 0 18.912 2.624v32.608A53.376 53.376 0 0 0 469.328 864z m53.344-102.784a68.4 68.4 0 0 1 17.744 4.96 137.44 137.44 0 0 0 46.24 11.328v33.168a32 32 0 0 1-64 0z m-85.344 16.8a137.536 137.536 0 0 0 46.208-11.808 68.56 68.56 0 0 1 17.792-5.008v49.456a32 32 0 0 1-64 0z" fill="#231F20" p-id="5223"></path></svg>