<?xml version="1.0" standalone="no"?><!DOCTYPE svg PUBLIC "-//W3C//DTD SVG 1.1//EN" "http://www.w3.org/Graphics/SVG/1.1/DTD/svg11.dtd"><svg t="1667358422426" class="icon" viewBox="0 0 1024 1024" version="1.1" xmlns="http://www.w3.org/2000/svg" p-id="19282" xmlns:xlink="http://www.w3.org/1999/xlink" width="128" height="128"><path d="M934.4 1022.976c-19.2 0-32-12.8-32-32v-601.6c0-6.4 6.4-19.2 6.4-19.2L512 69.376l-396.8 300.8c6.4 6.4 6.4 12.8 6.4 19.2v601.6c0 19.2-12.8 32-32 32s-32-12.8-32-32v-569.6H32c-12.8 0-25.6-6.4-32-19.2 0-12.8 0-25.6 12.8-38.4l480-358.4c12.8-6.4 25.6-6.4 38.4 0l480 358.4c12.8 12.8 12.8 25.6 12.8 38.4-6.4 12.8-19.2 19.2-32 19.2h-25.6v569.6c0 19.2-19.2 32-32 32z" p-id="19283"></path><path d="M448 990.976H192c-19.2 0-32-12.8-32-32v-576c0-19.2 12.8-32 32-32h256c19.2 0 32 12.8 32 32v576c0 19.2-12.8 32-32 32z m-224-64h192v-512h-192v512z" p-id="19284"></path><path d="M288 702.976a32 32 0 1 0 64 0 32 32 0 0 0-64 0zM288 830.976a32 32 0 1 0 64 0 32 32 0 0 0-64 0zM160 542.976h256v64h-256zM832 990.976H576c-19.2 0-32-12.8-32-32v-576c0-19.2 12.8-32 32-32h256c19.2 0 32 12.8 32 32v576c0 19.2-12.8 32-32 32z m-224-64h192v-512h-192v512z" p-id="19285"></path><path d="M672 702.976a32 32 0 1 0 64 0 32 32 0 0 0-64 0zM672 830.976a32 32 0 1 0 64 0 32 32 0 0 0-64 0zM544 542.976h256v64h-256z" p-id="19286"></path></svg>