<?xml version="1.0" standalone="no"?><!DOCTYPE svg PUBLIC "-//W3C//DTD SVG 1.1//EN" "http://www.w3.org/Graphics/SVG/1.1/DTD/svg11.dtd"><svg t="1666081575057" class="icon" viewBox="0 0 1024 1024" version="1.1" xmlns="http://www.w3.org/2000/svg" p-id="3638" xmlns:xlink="http://www.w3.org/1999/xlink" width="128" height="128"><path d="M867.25 877.2l-98.38-61.5c116.22-80.92 192.46-215.32 192.46-367.7 0-247.42-200.58-448-448-448s-448 200.58-448 448c0 152.38 76.24 286.78 192.46 367.7L159.41 877.2a64 64 0 0 0-30 54.28V960a64 64 0 0 0 64 64h640a64 64 0 0 0 64-64v-28.52a64 64 0 0 0-30.16-54.28z m-354-109.2a320 320 0 1 1 320-320 320 320 0 0 1-319.92 320z m0-576a256 256 0 1 0 256 256A256 256 0 0 0 513.33 192z m0 160a96.1 96.1 0 0 0-96 96 32 32 0 0 1-64 0 160.18 160.18 0 0 1 160-160 32 32 0 1 1 0 64z" p-id="3639"></path></svg>