<?xml version='1.0' encoding='ascii'?>
<svg xmlns="http://www.w3.org/2000/svg" xmlns:inkscape="http://www.inkscape.org/namespaces/inkscape" version="1.1" width="128" height="128">
    <defs>
        <linearGradient id="gradient-test" x1="0" y1="1" x2="0" y2="0">
            <stop offset="0%" stop-color="#bd34fe" />
            <stop offset="100%" stop-color="#4ac5ff" />
        </linearGradient>
    </defs>
    <g id="ViewLayer_LineSet" inkscape:groupmode="lineset" inkscape:label="ViewLayer_LineSet">
        <g xmlns:inkscape="http://www.inkscape.org/namespaces/inkscape" inkscape:groupmode="layer" inkscape:label="fills" id="fills">
            <path fill_rule="evenodd" stroke="none" fill-opacity="1.0" fill="rgb(204, 204, 204)" d=" M 42.278, 21.527 87.920, 21.535 125.526, 21.535 125.071, 4.090 5.137, 4.098 4.706, 21.527 42.278, 21.527  z" />
            <path fill_rule="evenodd" stroke="none" fill-opacity="1.0" fill="rgb(204, 204, 204)" d=" M 64.867, 74.852 87.920, 21.535 42.278, 21.527 64.867, 74.852  z" />
            <path fill_rule="evenodd" stroke="none" fill-opacity="1.0" fill="rgb(204, 204, 204)" d=" M 104.657, 28.938 84.860, 29.025 64.900, 75.020 45.272, 28.817 24.990, 28.883 64.849, 102.704 104.657, 28.938  z" />
            <path fill_rule="evenodd" stroke="none" fill-opacity="1.0" fill="rgb(204, 204, 204)" d=" M 127.435, 29.100 104.876, 28.827 64.835, 102.957 24.822, 28.784 0.871, 28.510 64.759, 128.297 127.435, 29.100  z" />
        </g>
        <g inkscape:groupmode="layer" id="strokes" inkscape:label="strokes">
            <path fill="#35495e" stroke-width="0" stroke-linecap="butt" stroke-opacity="1.0" stroke="rgb(0, 0, 0)" stroke-linejoin="round" d=" M 127.435, 29.100 117.436, 28.979 107.437, 28.858 104.876, 28.827 100.123, 37.626 95.371, 46.424 90.618, 55.223 85.866, 64.021 81.114, 72.820 76.361, 81.618 71.609, 90.417 66.856, 99.216 64.835, 102.957 60.088, 94.156 55.340, 85.355 50.592, 76.554 45.844, 67.753 41.097, 58.952 36.349, 50.151 31.601, 41.350 26.853, 32.549 24.822, 28.784 14.823, 28.670 4.824, 28.556 0.871, 28.510 6.263, 36.932 11.655, 45.354 17.047, 53.776 22.439, 62.197 27.831, 70.619 33.223, 79.041 38.615, 87.463 44.007, 95.884 49.399, 104.306 54.791, 112.728 60.183, 121.150 64.759, 128.297 70.101, 119.843 75.442, 111.389 80.784, 102.935 86.125, 94.481 91.467, 86.027 96.808, 77.574 102.149, 69.120 107.491, 60.666 112.832, 52.212 118.174, 43.758 123.515, 35.304 127.435, 29.100 " />
            <path fill="url(#gradient-test)" stroke-width="0" stroke-linecap="butt" stroke-opacity="1.0" stroke="rgb(0, 0, 0)" stroke-linejoin="round" d=" M 104.657, 28.938 94.657, 28.982 84.860, 29.025 80.879, 38.198 76.898, 47.372 72.917, 56.545 68.936, 65.719 64.900, 75.020 60.990, 65.816 57.080, 56.612 53.170, 47.408 49.260, 38.204 45.272, 28.817 35.272, 28.850 25.272, 28.883 24.990, 28.883 29.741, 37.683 34.492, 46.482 39.243, 55.281 43.994, 64.080 48.745, 72.880 53.496, 81.679 58.248, 90.478 62.999, 99.277 64.849, 102.704 69.598, 93.903 74.347, 85.103 79.096, 76.303 83.845, 67.502 88.594, 58.702 93.344, 49.902 98.093, 41.102 102.842, 32.301 104.657, 28.938 " />
            <path fill="#ffcd25" stroke-width="0" stroke-linecap="butt" stroke-opacity="1.0" stroke="rgb(0, 0, 0)" stroke-linejoin="round" d=" M 64.867, 74.852 68.836, 65.673 72.805, 56.494 76.773, 47.316 80.742, 38.137 84.711, 28.958 87.920, 21.535 77.920, 21.533 67.920, 21.532 57.920, 21.530 47.920, 21.528 42.278, 21.527 46.179, 30.735 50.079, 39.943 53.980, 49.151 57.881, 58.359 61.781, 67.567 64.867, 74.852 " />
            <path fill="#3178c6" stroke-width="0" stroke-linecap="butt" stroke-opacity="1.0" stroke="rgb(0, 0, 0)" stroke-linejoin="round" d=" M 42.278, 21.527 52.278, 21.529 62.278, 21.531 72.278, 21.533 82.278, 21.534 87.920, 21.535 97.920, 21.535 107.920, 21.535 117.920, 21.535 125.526, 21.535 125.265, 11.539 125.071, 4.090 115.071, 4.091 105.071, 4.092 95.071, 4.092 85.071, 4.093 75.071, 4.093 65.071, 4.094 55.071, 4.095 45.071, 4.095 35.071, 4.096 25.071, 4.096 15.071, 4.097 5.137, 4.098 4.890, 14.095 4.706, 21.527 14.706, 21.527 24.706, 21.527 34.706, 21.527 42.278, 21.527 " />
        </g>
    </g>
</svg>
