<?xml version="1.0" standalone="no"?><!DOCTYPE svg PUBLIC "-//W3C//DTD SVG 1.1//EN" "http://www.w3.org/Graphics/SVG/1.1/DTD/svg11.dtd"><svg t="1665283329116" class="icon" viewBox="0 0 1024 1024" version="1.1" xmlns="http://www.w3.org/2000/svg" p-id="6221" xmlns:xlink="http://www.w3.org/1999/xlink" width="128" height="128"><path d="M856.3 127.7h-688c-22 0-40 18-40 40v432c0 22 18 40 40 40H447l64.3 97.9 65.7-97.9h279.3c22 0 40-18 40-40v-432c0-22-18-40-40-40zM320.1 438.8c-30.4 0-55-24.6-55-55s24.6-55 55-55 55 24.6 55 55-24.7 55-55 55z m192 0c-30.4 0-55-24.6-55-55s24.6-55 55-55 55 24.6 55 55-24.6 55-55 55z m191.2 0c-30.4 0-55-24.6-55-55s24.6-55 55-55 55 24.6 55 55-24.6 55-55 55z" p-id="6222"></path></svg>