<?xml version="1.0" standalone="no"?><!DOCTYPE svg PUBLIC "-//W3C//DTD SVG 1.1//EN" "http://www.w3.org/Graphics/SVG/1.1/DTD/svg11.dtd"><svg t="1665559799217" class="icon" viewBox="0 0 1024 1024" version="1.1" xmlns="http://www.w3.org/2000/svg" p-id="1505" xmlns:xlink="http://www.w3.org/1999/xlink" width="128" height="128"><path d="M0 0h1024v1024H0z" fill="#21303A" p-id="1506"></path><path d="M615.43 707.34L655 759.89s9.64 87.22-12.85 109.71c0 0 32.15-17.22 53.41-46.94 15.44-21.59 49 56.22 49 56.22 21.05-13.5-3.62-75.42-8.47-87a0.15 0.15 0 0 1 0.27-0.13c36.91 59.14 68.81 30.87 68.81 30.87-43.36-21.56-28.91-68.79-28.91-68.79 4.82 6 60.23 68.79 60.23 68.79 22.89-62.51-8.43-124.2-8.43-124.2 60.23 27.7 79.5-14.46 79.5-14.46-53 9.64-63.84-27.7-63.84-27.7 90.34 13.25 76.35-51.8 76.35-51.8-35.67 44.57-84.78-32.57-84.78-32.57 88-14 80.08-72.47 80.08-72.47-64.64 45.71-101.76-68.46-101.76-68.46 8.43-309.58-175.87-243.33-175.87-243.33-169.85-142.14-359 39.75-359 39.75-75.89 90.35-124.88 37.75-124.88 37.75S128.16 337 216.1 376.75c0 0-69.87 56.62-41 159 0 0 41-83.12 41-68.66 0 0-26.72 136.2 26.28 163.91 0 0-38.55 47-79.5-6 0 0 0 118.93 106.22 66.17 0 0 4.6 71.36-68.88 58.11 0 0 20.24 58.62 76.62 38.94a1.37 1.37 0 0 1 1.83 1.1c1.65 13.29 25.85 96.07 30.47 103.55 4.43-3.86 24.38-67 29.93-66.7 0 0 36.44 38.55 29.21 130.1 0 0 42.3-60.23 32.66-195.15 0 0 35.38-77.09 75.53-57.82" fill="#902C36" p-id="1507"></path><path d="M363.81 968.79l1-12.78c5.93-75.16-18.26-114.19-26-124.56-3.72 6.41-10.53 24.29-14.84 35.61-7.27 19.07-10.23 26.46-12.52 28.47l-3.11 2.72-2.18-3.52c-4.94-8-26.91-84-30.53-102.39-16.25 5.16-31.17 4.53-44.37-1.87-24.37-11.8-34-38.88-34.35-40l-2-5.65 5.96 1.07c21.08 3.8 37.37 0.75 48.41-9.07 13.28-11.83 15.88-30.81 16.32-40-30.11 13.86-54.64 15.12-73 3.75-32.84-20.35-33.21-73.24-33.21-75.49v-10.32l6.28 8.13c12.07 15.62 25 23.65 38.35 23.86 15.18 0.22 27.5-9.75 32.82-14.91-42.17-28-30.81-124.3-25.85-155.63-7.72 12.36-21.05 37.54-32.68 61.14l-4 8.19-2.48-8.78c-15.24-54-3-95.3 9.9-120.45a148.88 148.88 0 0 1 28.18-38.58c-43-21-57.1-50-61.28-71-4.7-23.62 1.72-42 2-42.77l1.94-5.42 3.93 4.21c0.09 0.14 14.17 14.8 38.17 14.14 25.85-0.73 53.25-18.12 81.45-51.69l0.25-0.27c0.48-0.46 48.56-46.26 116.91-73.9 40.27-16.29 79.64-23.2 117-20.58 46.18 3.26 89.31 21.2 128.24 53.32 10.71-3.37 62.37-17 108.08 16.1 49.92 36.13 73.66 113.72 70.56 230.63 2.15 6.25 22.53 63.09 56.5 74.36 12.69 4.21 26.06 1.44 39.73-8.23l4.72-3.34 0.78 5.73c0.08 0.64 2 16-7.44 33.16-8.27 15-27.13 34.22-70.14 42.3 7.92 11.06 30.14 39.16 52.09 40.34 9 0.46 16.85-3.61 24-12.52l4.61-5.76 1.55 7.21c0.21 1 5.12 24.87-10.79 41.87-12.49 13.27-33.77 18.27-63.36 14.91 5.12 9.26 20 26.8 57.53 20l6.6-1.2-2.79 6.1a47.7 47.7 0 0 1-25.92 22.62c-14.22 5.27-31 4.27-50-3 7.74 19.1 23.41 68.28 4.93 118.75l-2 5.53-3.89-4.41c-2-2.21-41.51-47-55.69-63.45-2.06 13.17-2.61 42.5 28.55 58l4.66 2.32-3.9 3.44a35.34 35.34 0 0 1-27.3 7.23c-11.22-1.57-22.12-8.25-32.52-19.75 8.07 24.61 15.33 58.51-1.16 69.08l-3.47 2.23-1.63-3.79c-9.4-21.76-28.31-56.72-39.05-57.87-1-0.1-2.31 0.06-3.91 2.29-21.49 30-53.26 47.27-54.6 48l-20.88 11.18 16.7-16.75c19.84-19.84 12.88-96.48 11.94-105.9l-39-51.73 5.6-4.22 40.15 53.28 0.1 1c0.35 3.11 7.14 66.58-5.75 99.29 11.08-7.66 27.54-20.78 40-38.18 3.46-4.83 7.54-5.49 10.36-5.19 16 1.71 35.6 41.78 42.72 57.53 10.12-14.13-2.86-55.72-12.92-79.73a3.66 3.66 0 0 1 6.48-3.34c13.48 21.61 27.56 33.61 41.85 35.69a29.11 29.11 0 0 0 17.13-2.69c-39-23.71-25.56-69.57-25.42-70.05l2-6.34 4.14 5.18c4 5 43.32 49.61 56.12 64.13 18.32-58.37-9.89-115.19-10.18-115.77l-4.54-9 9.12 4.19c42.48 19.54 63.11 3.13 71-6.7a88.71 88.71 0 0 1-9.38 0.51c-41 0-50.64-31.45-50.74-31.81l-1.52-5.23 5.39 0.79c30.43 4.46 51.75 0.43 63.37-12 8.48-9.07 9.88-20.81 9.74-28.27-7.25 6.63-15.4 9.75-24.36 9.25-30.8-1.66-59.44-46.07-60.65-48l-2.86-4.51 5.27-0.83c68-10.79 76.59-48.07 77.3-62.68-13.78 8.15-27.42 10.06-40.64 5.67-39.13-13-60.25-76.68-61.12-79.39l-0.19-0.57v-0.61c3.12-114.74-19.62-190.56-67.59-225.33-47.16-34.19-103-14.8-103.6-14.6l-1.89 0.67-1.54-1.28c-69.32-58-149.87-69.1-239.43-32.95-65.42 26.41-112 69.79-114.74 72.41-29.63 35.2-58.79 53.38-86.72 54.12a61.07 61.07 0 0 1-38.84-12.38 84.24 84.24 0 0 0-0.27 34.22c5.92 29.12 26.79 52 62 67.89l5.16 2.33-4.39 3.58c-0.17 0.14-17.22 14.19-30.56 40.27-11.54 22.57-22.45 58.82-11.55 106.06 3.48-6.91 8.71-17.17 14.11-27.3 20.17-37.85 22.73-37.25 26-36.49 1 0.23 3.32 1.19 3.32 5.08l-0.06 0.68c-0.27 1.34-25.62 134 24.46 160.13l3.82 2-2.73 3.33c-0.69 0.84-17.08 20.48-40.53 20.48H204c-13-0.19-25.34-6.38-36.86-18.43 1.76 15.92 7.89 46.05 29.21 59.25 17.17 10.63 41.13 8.44 71.24-6.52l4.72-2.34 0.34 5.25c0.08 1.33 1.86 32.72-18.66 51-11.55 10.3-27.67 14.24-48 11.73 4 8.11 13 23 28.41 30.48 12.09 5.85 26 6.1 41.32 0.75a4.88 4.88 0 0 1 4.21 0.46 4.79 4.79 0 0 1 2.24 3.49c1.42 11.44 19.77 74.8 27.36 95.82 2.26-5.29 5.3-13.27 7.92-20.16 13.65-35.85 16.91-42 21.82-41.88l1.43 0.07 1 1.09c1.43 1.55 33.19 36.94 30.93 117.12 11.43-24.36 31.76-82.7 24.84-179.58l-0.06-0.89 0.37-0.82c0.93-2 23.15-49.82 53.37-60.73a33.58 33.58 0 0 1 26.86 1.22l-3 6.31a26.58 26.58 0 0 0-21.45-1c-25.5 9.21-46 50.07-49 56.28 9.37 134-31.6 194-33.35 196.49z" p-id="1508"></path><path d="M340.07 584.15s54 124 70.82 126.4c0 0 100.95 57.8 151.27 42.28 0 0 106.86-44.32 118.15-71.19 11.6-27.59 44.16-69.12 35.06-208.85-0.48-7.33-3.35-15.3-5.34-22.34-2.19-7.81-4.73-15.52-7.67-23.07-12.84-33-35.5-65.3-69-79.66a16.37 16.37 0 0 0-6.39-1.66c-3.16 0-5.3 2-6.95 4.47-9 13.47-17.8 27.05-27 40.35-11 15.74-22.35 31.17-34.35 46.14-17.77 22.26-41.75 56.56-70.86 64.68 0 0-7.05 2-18.07 5.59-41.93 13.51-141.54 48.88-129.67 76.86z" fill="#E3D9B4" p-id="1509"></path><path d="M542.36 758.98c-51.57 0-124.76-40.61-132.65-45.07-4.08-0.77-13.5-5.32-43.69-65.9-15.45-31-29-62.15-29.16-62.46a16.39 16.39 0 0 1 0.5-13.65c12-26.16 87.43-53.78 131.34-67.91 11-3.53 18.1-5.6 18.17-5.62 24.81-6.93 46-34 62.95-55.68 2.12-2.72 4.17-5.35 6.15-7.82 11.36-14.23 22.52-29.27 34.12-46 6.6-9.5 13.1-19.33 19.39-28.83q3.8-5.75 7.6-11.46c2.66-4 6-6 9.85-6a20.07 20.07 0 0 1 7.79 1.95c40.95 17.49 61.95 58.62 70.95 81.58 2.88 7.39 5.5 15.26 7.79 23.39 0.42 1.51 0.89 3.07 1.37 4.65 1.81 6 3.69 12.28 4.09 18.41 7.92 121.66-15.61 169.68-29.67 198.38-2.21 4.5-4.12 8.4-5.66 12.06-11.72 27.88-115.62 71.23-120 73.06l-0.31 0.11a70.72 70.72 0 0 1-20.92 2.81zM343.29 582.76c0.35 0.8 13.76 31.54 29 62.15 28.9 58 37.63 62 39.08 62.17l0.67 0.1 0.58 0.33c1 0.57 100 56.76 148.34 42 29.48-12.24 107.32-48.33 116.12-69.25 1.61-3.84 3.56-7.82 5.82-12.43 13.75-28.06 36.77-75 29-194.83-0.35-5.34-2.11-11.19-3.81-16.85-0.49-1.63-1-3.22-1.41-4.77-2.23-7.91-4.77-15.57-7.57-22.75-8.52-21.94-28.58-61.2-67.14-77.71a13.57 13.57 0 0 0-5-1.38c-1 0-2.34 0.35-4 2.91q-3.81 5.71-7.59 11.44c-6.31 9.54-12.83 19.4-19.48 29-11.69 16.82-22.94 32-34.4 46.33-2 2.46-4 5.06-6.11 7.76-17.62 22.53-39.55 50.57-66.54 58.11 0 0-7.1 2.05-17.94 5.54-71.79 23.11-119.31 47.1-127.12 64.16a9.5 9.5 0 0 0-0.5 7.97z" p-id="1510"></path><path d="M295.01 453.57s-24.42 148.57 83.76 177.48c0 0-61.53-57.82-32.09-137.33" fill="#902C36" p-id="1511"></path><path d="M391.26 638.01l-13.4-3.58c-45.63-12.19-75-47.58-85-102.34-7.44-40.88-1.58-77.55-1.33-79.09l6.92 1.14c-0.06 0.36-5.93 37.17 1.33 76.87 8.69 47.48 31.47 78.61 67.8 92.72-16.17-20.2-47-69.6-24.2-131.22l6.57 2.43c-28.28 76.32 30.62 132.95 31.22 133.56z" p-id="1512"></path><path d="M622.84 335.54s105.31 129 115 267.6a1.79 1.79 0 0 0 3.43 0.59c12.72-29.22 59.66-147 21.88-214.14" fill="#902C36" p-id="1513"></path><path d="M739.67 608.31a4.73 4.73 0 0 1-0.91-0.08 5.29 5.29 0 0 1-4.39-4.85c-9.52-135.86-113.2-264.34-114.24-265.62l5.42-4.43c1 1.27 102.64 127.12 115.25 262.63 14.06-33.94 54.17-142.74 19.34-204.65l6.11-3.43c38.1 67.74-7 183.41-21.73 217.25a5.27 5.27 0 0 1-4.85 3.18z" p-id="1514"></path><path d="M723.2 604.81s-21 55.9-74.31 95.57c3.23-0.23 107.07 6.73 112.85-61.84" fill="#902C36" p-id="1515"></path><path d="M638 704.18l8.8-6.61c51.76-38.55 72.91-93.44 73.12-94l6.55 2.47c-0.83 2.2-19.91 51.81-67.51 90.9 33.8-0.37 95-8.11 99.29-58.71l7 0.59c-5.14 61-81.91 65.84-114.69 65.07h-1.46z" p-id="1516"></path><path d="M339.1 527.57s14.13-62.76 123.75-119.37" fill="#902C36" p-id="1517"></path><path d="M342.51 528.35l-6.84-1.54c0.59-2.63 15.76-65 125.56-121.72l3.22 6.22c-106.57 55.04-121.78 116.43-121.94 117.04z" p-id="1518"></path><path d="M569.07 532.13s46.87-67.14 108.94-19c0 0-15.2 41.39-46 45.19-0.02-0.01-50.7 9.28-62.94-26.19z" fill="#FFFFFF" p-id="1519"></path><path d="M579.4 522.81s9.74 35 35.07 32.47c0 0 43.45-2.22 41-57.17 0.02 0-42.46-12.22-76.07 24.7z" fill="#1B1464" p-id="1520"></path><path d="M604.932545 529.800975a12.83 11.87 70.09 1 0 22.32103-8.084506 12.83 11.87 70.09 1 0-22.32103 8.084506Z" p-id="1521"></path><path d="M599.37 527.58m-6.8 0a6.8 6.8 0 1 0 13.6 0 6.8 6.8 0 1 0-13.6 0Z" fill="#FFFFFF" p-id="1522"></path><path d="M465.94 532.13m-6.8 0a6.8 6.8 0 1 0 13.6 0 6.8 6.8 0 1 0-13.6 0Z" fill="#FFFFFF" p-id="1523"></path><path d="M551.79 514.72l13.39-17.22 71.43-29.34s42.1-3.83 58.68 17.22c0 0-33.8-6.38-53.57-2.55 0 0-81 24.23-89.93 31.89zM476.43 504.49l-9.23-3.56 9.23 3.56zM497.37 501.89c-2.18 0.77-11.52 4.06-14.61 5.07l25.22 9.72h1.75z" fill="#7C3C2C" p-id="1524"></path><path d="M571.3 533.51l-4.47-2.77c0.79-1.27 19.64-31.19 52.21-37.31 19.74-3.72 40.11 2.21 60.55 17.6l-3.16 4.19c-19.21-14.46-38.19-20.06-56.42-16.63-30.34 5.7-48.53 34.63-48.71 34.92z" p-id="1525"></path><path d="M469.05 510.66c-16.59 6.17-61.22 23.14-70.77 26.77 7.67 11 19.36 22.73 35.11 24.64 0 0 50.69 9.19 62.86-26.31a103.41 103.41 0 0 0-27.2-25.1z" fill="#FFFFFF" p-id="1526"></path><path d="M469.19 509.76c-11.83 4.4-38.46 14.5-56 21.16 12.19 25.69 38.48 25.37 38.48 25.37 25.43 0.88 32.93-34.65 32.93-34.65a85 85 0 0 0-15.41-11.88z" fill="#1B1464" p-id="1527"></path><path d="M453.25 516.67a10.84 10.84 0 0 0-1.71-0.46l-11.42 4.32a13.32 13.32 0 0 0-2.4 4.15c-2.42 6.66 0.63 13.87 6.79 16.11s13.12-1.36 15.53-8-0.63-13.9-6.79-16.12zM469.74 505.75l-6.07 2.61c19.12 10.47 30.19 28 30.33 28.22l4.46-2.76a95.38 95.38 0 0 0-28.72-28.07z" p-id="1528"></path><path d="M461.71 532.13m-6.8 0a6.8 6.8 0 1 0 13.6 0 6.8 6.8 0 1 0-13.6 0Z" fill="#FFFFFF" p-id="1529"></path><path d="M498.47 670.73a3.5 3.5 0 0 1-1-6.86c2.34-0.7 57.78-16.83 87.75 0.32a3.503 3.503 0 0 1-3.48 6.08c-27.36-15.66-81.74 0.15-82.28 0.32a3.83 3.83 0 0 1-0.99 0.14z" p-id="1530"></path></svg>