<?xml version="1.0" standalone="no"?><!DOCTYPE svg PUBLIC "-//W3C//DTD SVG 1.1//EN" "http://www.w3.org/Graphics/SVG/1.1/DTD/svg11.dtd"><svg t="1665282938178" class="icon" viewBox="0 0 1024 1024" version="1.1" xmlns="http://www.w3.org/2000/svg" p-id="4920" xmlns:xlink="http://www.w3.org/1999/xlink" width="128" height="128"><path d="M842.472727 83.781818h-660.945454c-65.163636 0-125.672727 60.509091-125.672728 125.672727v107.054546c0 18.618182 18.618182 37.236364 37.236364 37.236364s37.236364-18.618182 37.236364-37.236364v-107.054546c0-27.927273 23.272727-51.2 51.2-51.2h660.945454c27.927273 0 51.2 23.272727 51.2 51.2v111.709091c0 18.618182 18.618182 37.236364 37.236364 37.236364s37.236364-18.618182 37.236364-37.236364v-111.709091c0-69.818182-60.509091-125.672727-125.672728-125.672727zM930.909091 670.254545c-18.618182 0-37.236364 18.618182-37.236364 37.236364v111.709091c0 27.927273-23.272727 51.2-51.2 51.2h-660.945454c-27.927273 0-51.2-23.272727-51.2-51.2v-111.709091c0-18.618182-18.618182-37.236364-37.236364-37.236364s-37.236364 18.618182-37.236364 37.236364v111.709091c0 65.163636 60.509091 125.672727 125.672728 125.672727h660.945454c65.163636 0 125.672727-60.509091 125.672728-125.672727v-111.709091c0-23.272727-18.618182-37.236364-37.236364-37.236364zM637.672727 628.363636c9.309091 18.618182 32.581818 23.272727 51.2 13.963637l176.872728-102.4c9.309091-4.654545 18.618182-18.618182 18.618181-32.581818s-9.309091-23.272727-18.618181-32.581819l-176.872728-102.4c-18.618182-9.309091-41.890909-4.654545-51.2 13.963637-9.309091 18.618182-4.654545 41.890909 13.963637 51.2l121.018181 69.818182-121.018181 69.818181c-18.618182 9.309091-23.272727 32.581818-13.963637 51.2zM144.290909 628.363636c9.309091 18.618182 32.581818 23.272727 51.2 13.963637l176.872727-102.4c9.309091-4.654545 18.618182-18.618182 18.618182-32.581818s-9.309091-23.272727-18.618182-32.581819l-176.872727-102.4c-18.618182-9.309091-41.890909-4.654545-51.2 13.963637-9.309091 18.618182-4.654545 41.890909 13.963636 51.2l121.018182 69.818182-121.018182 69.818181c-18.618182 9.309091-23.272727 32.581818-13.963636 51.2z" p-id="4921"></path><path d="M619.054545 479.418182l-176.872727-102.4c-18.618182-9.309091-41.890909-4.654545-51.2 13.963636-9.309091 18.618182-4.654545 41.890909 13.963637 51.2l121.018181 69.818182-121.018181 69.818182c-18.618182 9.309091-23.272727 32.581818-13.963637 51.2 9.309091 18.618182 32.581818 23.272727 51.2 13.963636l176.872727-102.4c9.309091-4.654545 18.618182-18.618182 18.618182-32.581818s-4.654545-27.927273-18.618182-32.581818z" p-id="4922"></path></svg>