<?xml version="1.0" standalone="no"?><!DOCTYPE svg PUBLIC "-//W3C//DTD SVG 1.1//EN" "http://www.w3.org/Graphics/SVG/1.1/DTD/svg11.dtd"><svg t="1665543198619" class="icon" viewBox="0 0 1024 1024" version="1.1" xmlns="http://www.w3.org/2000/svg" p-id="2421" xmlns:xlink="http://www.w3.org/1999/xlink" width="128" height="128"><path d="M0 0h1024v1024H0z" fill="#21303A" p-id="2422"></path><path d="M188.59 357.89s66.14 448.41 86.08 473.88c0 0 93.49 84.08 227.46 94.27 0 0 228-38.22 273.66-114.65l68.41-430.57c3-13.51 21-107.68-2.14-111.91-3.79-0.69-7.66 0.56-11.15 2a72 72 0 0 0-23.18 15.61c-2.26-13-11.27-66.61-36.47-60-22.49 5.9-30.72 60-34.59 75.16a595.42 595.42 0 0 0 9-70.51c1.11-16.58 2-33.75-0.76-50.24-4.67-27.61-31.79-33.61-60.46-32.93-46.84 1.1-47.43 94.18-42.67 123.24 0 0-21.74-125.24-39.9-150.31-8.86-12.23-11.48-16.73-31-18.25-21.42-1.67-43.88 2.52-63.18 10.8-3.57 1.52-7.14 3.26-9.67 6-7.33 7.89-4.21 21.87-5.12 31.39-1.23 12.95-3.42 25.94-5 38.87 0-9.88-16.62-23.28-23.32-29.89-15.29-15.06-26.28-23.83-50.22-19.84-29.2 4.88-108.9 16.8-97.51 57.38 0 0-11.4 53.5-8.55 71.33-1.24-7.79-51.47-13.57-58-13.74-57.07-1.53-72.39 46.42-61.74 87.63" fill="#C7B18D" p-id="2423"></path><path d="M502.22 927.44h-0.17c-69.46-5.28-127.82-30.71-164.55-51.12-39.79-22.11-63.51-43.28-63.74-43.49l-0.17-0.18c-20-25.47-83.67-456.21-86.38-474.53l2.75-0.41c0.71 4.46 66.16 447.18 85.71 473.11 3.43 3 96.35 83.87 226.38 93.82 7.27-1.24 227.86-39.75 272.43-113.75l68.37-430.31c4-17.9 16.43-88.18 4.36-106.39a8.22 8.22 0 0 0-5.38-3.94c-3.54-0.64-7.22 0.63-10.36 1.95a71.25 71.25 0 0 0-22.73 15.31l-1.9 1.92-0.53-3.08c-5.4-31.16-13.21-50.22-23.2-56.65a13.7 13.7 0 0 0-11.44-1.81c-18.49 4.84-27.39 45.86-31.66 65.58-0.75 3.43-1.39 6.4-1.94 8.57l-2.71-0.6a591.69 591.69 0 0 0 9-70.35c1.16-17.17 2-33.92-0.74-49.91-3.76-22.23-23-32.65-59.06-31.78-9.27 0.22-17.25 4.28-23.72 12.07-22.65 27.31-20.83 89.87-17.61 109.57l-2.74 0.46c-0.21-1.25-21.89-125.21-39.66-149.74l-0.85-1.18c-8.15-11.27-10.89-15.07-29.16-16.5-20.5-1.6-42.71 2.2-62.53 10.69-3.92 1.68-7 3.29-9.19 5.66-4.92 5.3-4.77 13.66-4.61 21.74a82.16 82.16 0 0 1-0.14 8.84c-0.77 8.1-1.94 16.34-3.06 24.3-0.68 4.79-1.38 9.74-2 14.6l-2.77-0.17c0-7.62-11.32-18.1-18.81-25-1.56-1.45-3-2.75-4.1-3.87-14.92-14.7-25.67-23.35-49-19.46l-2.62 0.43c-24.87 4.11-76.62 12.67-91.08 35.41a23.54 23.54 0 0 0-2.69 19.78l0.09 0.33-0.07 0.33c-0.11 0.54-11.31 53.44-8.54 70.83l-2.74 0.44c-0.93-5.84-46.54-12.3-56.65-12.57-21.94-0.6-39.39 6.4-50.39 20.22-12.73 16-16.46 40.54-10 65.67l-2.69 0.69c-6.7-26-2.78-51.42 10.49-68.09 11.57-14.53 29.79-21.88 52.64-21.27 0.49 0 43.94 3.69 56.17 11.29-1-19.92 7.92-62.84 8.9-67.45a26.18 26.18 0 0 1 3.1-21.69c15.13-23.79 67.71-32.48 93-36.66l2.61-0.43c24.65-4.11 35.87 4.9 51.42 20.23 1.12 1.09 2.5 2.37 4 3.8 6.24 5.78 14.22 13.17 17.8 20.22 0.37-2.68 0.75-5.35 1.12-8 1.12-7.93 2.28-16.14 3-24.18a78.5 78.5 0 0 0 0.13-8.52c-0.16-8.23-0.33-17.56 5.36-23.68 2.81-3 6.7-4.85 10.13-6.32a138.15 138.15 0 0 1 63.84-10.91c19.54 1.53 22.95 6.25 31.19 17.64l0.85 1.18c13.28 18.34 28.16 87.95 35.53 126-0.42-27.55 3.35-66.2 20.1-86.38 7-8.44 15.67-12.83 25.79-13.07 37.6-0.9 57.83 10.26 61.86 34.09 2.76 16.29 1.94 33.21 0.77 50.56-0.79 11.8-1.95 23.65-3.46 35.47 5.5-18.86 13.88-38 27.29-41.55a16.59 16.59 0 0 1 13.68 2.18c15.21 9.77 21.65 42.69 24 56.33a74.35 74.35 0 0 1 21.73-14.05c3.31-1.41 7.65-2.91 11.94-2.13a11 11 0 0 1 7.2 5.13c14.53 21.94-3.76 107.6-4 108.46l-68.27 430.72-0.14 0.23c-19.1 32-71.15 61.15-154.72 86.61a1081.4 1081.4 0 0 1-119.9 28.7z" p-id="2424"></path><path d="M327.93 458.2l-3.77-1.77c17.21-36.89-30.09-137.34-30.57-138.35l3.76-1.78c2 4.19 48.62 103.23 30.58 141.9zM471.95 414.94c-30.58-61.17-1.4-167.69-0.14-172.2l4 1.12c-0.3 1.09-30 109.49-0.14 169.21zM670.49 360.89c-7.5-40-73-163.76-73.68-165l3.68-1.95c2.71 5.11 66.48 125.59 74.1 166.2zM599.38 433.79l-1.46-3.9c13.67-5.13 6.44-76.31-1.32-120l4.1-0.73c0.06 0.29 5.15 29.09 7.67 58.47 5.23 60.83-5.47 64.84-8.99 66.16zM749.54 457.97c-10.27-30.82 21.54-144.18 22.9-149l4 1.13c-0.33 1.17-32.83 116.93-22.95 146.55zM382.67 329.28c-20.4-65 15.07-134.65 15.43-135.34l3.7 1.92c-0.35 0.68-35 68.8-15.15 132.17zM256.74 468.89l-4.07-1c15-64.14 0.14-138.11 0-138.85l4.08-0.83c0.15 0.77 15.2 75.61-0.01 140.68zM715.05 496.66l-3.5-2.26c22.3-34.69 12.51-198.36 12.41-200l4.16-0.26c0.42 6.75 9.97 166.69-13.07 202.52z" p-id="2425"></path><path d="M389.14 572.05m-64.41 0a64.41 64.41 0 1 0 128.82 0 64.41 64.41 0 1 0-128.82 0Z" fill="#140D02" p-id="2426"></path><path d="M635.59 572.05m-64.41 0a64.41 64.41 0 1 0 128.82 0 64.41 64.41 0 1 0-128.82 0Z" fill="#140D02" p-id="2427"></path><path d="M607.71 572.05m-14.01 0a14.01 14.01 0 1 0 28.02 0 14.01 14.01 0 1 0-28.02 0Z" fill="#F4F0EA" p-id="2428"></path><path d="M413.93 572.05m-14.01 0a14.01 14.01 0 1 0 28.02 0 14.01 14.01 0 1 0-28.02 0Z" fill="#F4F0EA" p-id="2429"></path><path d="M304.22 517.2l-2.7-3.17a171.8 171.8 0 0 1 52.39-28.74c28.22-9.4 69.81-13.4 107.76 20.8l-2.79 3.09c-29.2-26.38-64-33.1-103.48-20a171 171 0 0 0-51.18 28.02zM711.99 517.23c-34.32-27.85-68.21-36.34-100.57-25.34a95.3 95.3 0 0 0-38.64 25.1l-3.19-2.69a97.91 97.91 0 0 1 40.3-26.29c23.28-8 60.35-9.94 104.72 26zM476.76 777.57a373.51 373.51 0 0 1-49.71-3.25 6.244 6.244 0 1 1 1.79-12.36c1.19 0.17 119.26 16.7 151.05-29.22a6.261 6.261 0 1 1 10.28 7.15c-21.62 31.19-73.81 37.68-113.41 37.68z" p-id="2430"></path></svg>