<?xml version="1.0" standalone="no"?><!DOCTYPE svg PUBLIC "-//W3C//DTD SVG 1.1//EN" "http://www.w3.org/Graphics/SVG/1.1/DTD/svg11.dtd"><svg t="1665543107310" class="icon" viewBox="0 0 1024 1024" version="1.1" xmlns="http://www.w3.org/2000/svg" p-id="1536" xmlns:xlink="http://www.w3.org/1999/xlink" width="128" height="128"><path d="M0 0h1024v1024H0z" fill="#21303A" p-id="1537"></path><path d="M181.3504 486.9632c-1.7408-1.1264 3.6864-34.8672 3.9424-38.912 0.8192-13.7216 1.1264-27.4944 1.3312-41.216 0.4096-27.3408 0.3072-54.7328 2.56-81.92a273.664 273.664 0 0 1 16.2816-77.3632c9.5744-24.3712 27.136-37.632 47.4112-53.4016C334.5408 129.7408 436.224 79.1552 542.72 88.9856c50.2272 4.608 98.4064 22.2208 143.0528 45.0048 40.2432 20.48 81.664 45.1072 106.752 84.0192 16.9472 26.2656 24.9856 57.088 32.7168 87.3984 12.8512 49.9712 25.6 101.4784 18.9952 152.6784 12.032-2.2016 17.4592 14.4384 17.7664 26.6752 1.3824 59.1872 0 118.9888-13.568 176.5888-3.4816 14.848-8.0896 30.1056-18.3808 41.4208s-27.648 17.5104-41.2672 10.5984a470.4256 470.4256 0 0 1-127.1296 153.6 87.808 87.808 0 0 1-26.6752 15.8208c-13.5168 4.3008-28.16 2.5088-42.2912 1.024a753.7664 753.7664 0 0 0-175.5136 2.2016 51.712 51.712 0 0 1-20.48 0 47.36 47.36 0 0 1-15.36-8.7552c-51.6096-39.2192-100.7104-104.448-135.2704-159.2832-16.9984 5.5296-25.6 12.9536-39.9872-9.8304-11.776-18.5856-23.04-54.3744-27.8016-75.8784-9.8304-44.6464-18.0736-84.0704-17.3568-125.7472a22.4256 22.4256 0 0 1 5.4784-13.7728c3.7376-3.9424 10.0864-9.0112 14.9504-5.7856z" fill="#F72B35" p-id="1538"></path><path d="M405.4528 889.4976a34.0992 34.0992 0 0 1-9.0624-1.1264 49.7664 49.7664 0 0 1-16.128-9.1648C322.56 835.2768 271.36 761.9584 245.76 720.9472l-4.4032 1.5872c-13.3632 4.864-22.9888 8.3968-36.6592-13.1072-12.5952-19.8656-23.7568-56.7808-28.16-76.8-10.6496-48.1792-18.1248-85.504-17.408-126.3104a24.7808 24.7808 0 0 1 6.144-15.36 18.432 18.432 0 0 1 13.4656-7.5776c0-4.1984 1.0752-11.8272 3.0208-26.1632 0.6144-4.4544 1.1776-8.2432 1.2288-9.3184 0.8192-14.08 1.1264-28.0576 1.3312-40.96v-15.36c0-21.9648 0.512-44.6464 2.3552-66.9696a274.9952 274.9952 0 0 1 16.4352-78.1312c9.216-23.7056 25.9072-36.5568 45.2608-51.9168l2.9184-2.304c68.6592-54.1696 175.0528-116.48 291.84-105.728 45.2608 4.1984 92.16 18.9952 143.9744 45.2608 40.96 20.992 82.4832 45.7728 107.52 84.9408 17.4592 27.0336 25.6 59.4944 33.0752 88.1152 11.9296 46.5408 25.6 99.1744 19.4048 150.6304a12.9024 12.9024 0 0 1 7.5264 3.0208c6.9632 5.6832 9.6768 17.7152 9.8816 26.3168 1.28 53.6576 0.6144 116.6336-13.6192 177.2032-3.584 15.36-8.3456 30.72-18.9952 42.5984-9.8816 10.8544-27.136 18.176-42.0352 12.1856a469.0944 469.0944 0 0 1-126.6688 152.2176 91.8016 91.8016 0 0 1-27.4432 16.2304c-13.4656 4.2496-27.6992 2.7648-41.4208 1.28h-1.9456a754.0736 754.0736 0 0 0-174.8992 2.2016 91.1872 91.1872 0 0 1-12.032 0.768z m-157.7472-174.6432l1.0752 1.6896c25.6 40.2944 76.8 114.5344 134.6048 158.72a44.544 44.544 0 0 0 14.3872 8.2944 47.616 47.616 0 0 0 18.8416 0 759.6032 759.6032 0 0 1 176.4864-2.2528h1.9456c13.2608 1.3824 26.9312 2.8672 39.3216-1.1264a84.6336 84.6336 0 0 0 25.6-15.36 464.0768 464.0768 0 0 0 126.4128-152.6784l1.1776-2.2528 2.2528 1.1264c13.1072 6.656 29.184 0 38.2464-10.24s14.3872-25.6 17.7664-40.2944c14.1312-60.0064 14.7456-122.5728 13.5168-175.9232 0-7.8336-2.7648-18.2272-7.9872-22.4768A7.936 7.936 0 0 0 844.8 460.8l-3.4304 0.6656 0.4608-3.4816c6.7584-51.2-6.912-104.7552-18.944-151.7568-7.2192-28.2624-15.36-60.2624-32.4096-86.6304-24.576-38.144-65.3312-62.5152-105.728-83.0976-51.2-26.0096-97.28-40.6528-142.1824-44.7488-115.0464-10.6496-220.16 51.2-288.1536 104.6016l-2.9184 2.304c-18.7904 14.7456-34.9696 27.4944-43.7248 49.92a266.24 266.24 0 0 0-16.0768 76.8c-1.8432 22.1184-2.0992 44.7488-2.3552 66.56v15.36c0 13.1072-0.512 27.136-1.3312 41.3184 0 1.28-0.5632 4.8128-1.2288 9.6768a230.8096 230.8096 0 0 0-2.9696 28.0576 2.56 2.56 0 0 0-0.8704-1.1264l-2.816 4.3008c-3.2256-2.0992-8.3968 1.9456-11.0592 5.12a19.968 19.968 0 0 0-5.12 12.2368c-0.6144 40.192 6.8096 77.2096 17.3568 125.0816 5.12 23.6544 16.64 57.9584 27.4432 75.0592 11.4688 18.0224 17.8688 15.7184 30.72 11.0592 1.9968-0.7168 4.1472-1.536 6.4512-2.2528z" p-id="1539"></path><path d="M401.9712 209.4592c-0.9728 28.16-0.9216 113.5104 29.3376 185.2928a9.8304 9.8304 0 0 0 6.2464 5.5808c10.24 2.9696 49.2032 7.4752 129.8432-1.4336a9.7792 9.7792 0 0 0 8.0384-6.144c9.5232-23.7568 34.7648-123.8528 37.2224-184.32a9.8304 9.8304 0 0 1 10.24-9.3696 8.2944 8.2944 0 0 1 2.7648 0.512c37.5808 12.7488 147.0464 55.6032 163.4304 85.3504a10.5984 10.5984 0 0 1 0.9216 2.4064c2.2528 9.0112 16.3328 72.4992 12.9024 231.8848a6.912 6.912 0 0 0 0 2.048c1.8944 10.24 3.1232 87.9616-5.12 120.9856a10.24 10.24 0 0 1-3.1744 5.12c-14.8992 12.5952-84.5824 82.7392-81.152 122.88a9.7792 9.7792 0 0 1-2.9184 7.9872c-8.192 7.9872-27.7504 32.6144-37.4784 39.4752a10.24 10.24 0 0 1-8.6528 1.3312 37.632 37.632 0 0 1-12.4416-6.144 9.7792 9.7792 0 0 0-6.8096-2.4064l-226.1504 9.216c-3.2256 0-13.3632 2.1504-15.36 4.8128-9.5232 8.0896-12.8512 7.4752-17.6128 5.12-9.6256-4.8128-28.0576-32-34.1504-37.9904a9.728 9.728 0 0 1-2.3552-3.5328c-2.7648-7.168-15.9744-35.328-83.6608-96.1536 0 0-37.1712-35.1232-29.184-157.696a5.12 5.12 0 0 0 0-1.28c-0.8704-12.8512-14.4896-216.7808-3.2768-227.9936 0 0 113.92-93.4912 155.9552-105.472a9.8304 9.8304 0 0 1 12.1344 6.7584 9.6256 9.6256 0 0 1 0.4608 3.1744z" fill="#F2EF91" p-id="1540"></path><path d="M391.4752 832.6656a13.312 13.312 0 0 1-5.888-1.6384c-6.7584-3.3792-17.0496-16.5888-25.6-27.1872-3.8912-5.12-7.2192-9.1648-9.1648-11.0592a11.4688 11.4688 0 0 1-2.6112-3.9936c-3.6864-9.5744-19.2-38.0416-83.3536-95.6416-1.536-1.4848-37.5296-37.0176-29.5936-158.72a4.1472 4.1472 0 0 0 0-1.1264c-2.4064-36.2496-14.08-217.8048-2.8672-228.9664 4.7104-3.9424 114.688-93.952 156.4672-105.8304a11.1104 11.1104 0 0 1 13.7216 7.6288 10.24 10.24 0 0 1 0.4096 3.328c-0.8704 24.9344-1.3824 112.0768 29.2352 184.7808a8.6016 8.6016 0 0 0 5.4272 4.8128c11.7248 3.4304 52.1728 7.0656 129.3312-1.4848a8.3968 8.3968 0 0 0 7.0144-5.12c9.8304-24.6272 34.7648-125.3376 37.12-183.7056a11.2128 11.2128 0 0 1 11.5712-10.5984 10.8544 10.8544 0 0 1 3.1232 0.5632c37.2736 12.6464 147.4048 55.6032 164.1472 85.9648a12.4928 12.4928 0 0 1 1.0752 2.7136c2.7648 11.0592 16.3328 74.3424 12.9024 232.192a7.0144 7.0144 0 0 0 0 1.792c1.9968 10.24 3.1744 88.4736-5.12 121.5488a11.1104 11.1104 0 0 1-3.584 5.7856c-18.7392 15.872-83.9168 83.8656-80.6912 121.6a11.264 11.264 0 0 1-3.2768 9.0624c-2.9184 2.816-7.4752 7.9872-12.2368 13.4144a206.1312 206.1312 0 0 1-25.6 26.1632 11.2128 11.2128 0 0 1-9.7792 1.536 38.656 38.656 0 0 1-12.9024-6.4512 8.0384 8.0384 0 0 0-5.8368-2.048l-226.4064 9.1648a30.3104 30.3104 0 0 0-14.08 4.2496l-0.3072 0.3584c-5.4784 5.0176-9.2672 6.912-12.6464 6.912z m0.6656-632.064a7.7312 7.7312 0 0 0-2.3552 0.3584c-40.96 11.776-154.3168 104.2944-155.4432 105.2672-8.5504 8.5504-1.28 152.1664 3.7376 226.9184a6.7072 6.7072 0 0 1 0 1.4336c-7.8848 120.32 28.416 156.3136 28.7744 156.672 64.512 57.9584 80.2304 87.04 84.0192 96.6144a8.8576 8.8576 0 0 0 1.9968 3.072 145.152 145.152 0 0 1 9.3696 11.3152c7.7312 9.8816 18.2784 23.3472 24.5248 26.4704 4.1472 2.0992 6.9632 2.8672 16.1792-5.12 2.2528-3.4816 13.824-5.12 16.0256-5.12l226.1504-9.216a10.8032 10.8032 0 0 1 7.68 2.7136 37.0688 37.0688 0 0 0 11.9808 5.888 8.6528 8.6528 0 0 0 7.5776-1.1776 210.4832 210.4832 0 0 0 24.9344-25.6c5.12-5.6832 9.3696-10.6496 12.3904-13.568a8.6016 8.6016 0 0 0 2.5088-6.9632c-3.5328-41.5744 68.1984-112.64 81.5616-123.8528a8.3456 8.3456 0 0 0 2.816-4.4544c8.1408-32.768 6.9632-110.2848 5.12-120.4224a11.6224 11.6224 0 0 1 0-2.304c3.4304-157.5424-10.24-220.5184-12.8512-231.5264a8.1408 8.1408 0 0 0-0.8192-2.0992c-15.36-27.4432-116.1728-68.9664-162.7136-84.7872a9.5232 9.5232 0 0 0-2.4064-0.4608 8.5504 8.5504 0 0 0-8.9088 8.192c-2.5088 61.0304-27.7504 160.6144-37.2736 184.576a11.1616 11.1616 0 0 1-9.1136 6.912c-77.6192 8.5504-118.4768 5.12-130.3552 1.3824A11.0592 11.0592 0 0 1 430.08 395.264c-30.72-73.1648-30.3104-160.7168-29.44-185.856a7.168 7.168 0 0 0-0.3072-2.56 8.5504 8.5504 0 0 0-8.192-6.2464z" p-id="1541"></path><path d="M234.0864 488.0896s0-8.96-0.512-9.2672 28.0064 25.6 39.5264 31.1808c0 0-0.256-33.7408 9.2672-33.4848 0 0 107.9296 48.9984 165.9904 38.8096 0 0 3.1744 32.768-9.728 43.1104 0 0-107.52 15.36-161.4336-33.9968z" p-id="1542"></path><path d="M289.28 509.9008s21.9648 38.2464 157.5936 33.5872a62.2592 62.2592 0 0 0 0-28.2112s-94.2592-6.5536-143.7184-30.72c0-0.2048-15.4112 13.6704-13.8752 25.344z" fill="#F7F7F7" p-id="1543"></path><path d="M803.84 480.3584s0-8.96 0.512-9.2672-27.9552 25.6-39.5264 31.1808c0 0 0-33.6896-9.2672-33.4336 0 0-107.9296 48.9984-165.9904 38.7584 0 0-3.1744 32.8192 9.728 43.1104 0 0 107.52 15.36 161.4336-33.9968z" p-id="1544"></path><path d="M748.3904 502.1184s-22.016 38.2464-157.5936 33.5872a62.0544 62.0544 0 0 1 0-28.16s94.2592-6.6048 143.7184-30.72c0-0.2048 15.4112 13.7216 13.8752 25.2928z" fill="#F7F7F7" p-id="1545"></path><path d="M448.4096 515.328s104.8576 9.7792 140.8512-7.7312v12.6464s-58.2656 16.4864-141.1072 4.5568l-1.3312-9.5744m270.4384 236.1344l-43.3664 21.76-29.8496-19.9168-1.6896-0.3584c-98.816-21.6576-220.16 1.9456-225.28 2.7648h-0.9728l-35.84 18.0736-40.2944-5.12c-0.5632-0.5632 11.1616 21.9648 11.1616 21.9648l30.4128 2.7648 38.8096-22.1184c12.2368-1.792 125.7984-22.6304 217.088-3.1232l37.1712 25.2416 39.2192-21.248zM246.1184 719.104c-29.3376-11.7248-64.512-222.9248-65.9968-231.936l2.5088-0.4096c0.3584 2.2016 36.4544 218.7776 64.4608 229.9392z" p-id="1546"></path><path d="M789.1968 714.5984l-0.5632-2.4576c37.632-8.7552 54.3232-251.6992 54.4768-254.1568h2.56c-0.8704 10.2912-16.9472 247.5008-56.4736 256.6144z" fill="#21303A" p-id="1547"></path></svg>