<?xml version="1.0" standalone="no"?><!DOCTYPE svg PUBLIC "-//W3C//DTD SVG 1.1//EN" "http://www.w3.org/Graphics/SVG/1.1/DTD/svg11.dtd"><svg t="1665543084636" class="icon" viewBox="0 0 1024 1024" version="1.1" xmlns="http://www.w3.org/2000/svg" p-id="1355" xmlns:xlink="http://www.w3.org/1999/xlink" width="128" height="128"><path d="M0 0h1024v1024H0z" fill="#21303A" p-id="1356"></path><path d="M520.49 515.68m-387.23 0a387.23 387.23 0 1 0 774.46 0 387.23 387.23 0 1 0-774.46 0Z" fill="#FA5344" p-id="1357"></path><path d="M521.12 905.05q-16.56 0-33.24-1.4a389.57 389.57 0 1 1 420.58-355.36l-2.1-0.17 2.1 0.17a389.05 389.05 0 0 1-387.34 356.76z m-1.27-774.52c-90.79 0-177.77 31.71-247.91 91a385.12 385.12 0 0 0 216.29 677.92q16.51 1.38 32.91 1.38c90.78 0 177.76-31.71 247.91-91a382.66 382.66 0 0 0 135.21-261.89c17.79-211.61-139.9-398.24-351.51-416-11-0.96-21.99-1.41-32.9-1.41z" fill="#231815" p-id="1358"></path><path d="M364.1 163.47l312.71 704.29" fill="#F4F4F4" p-id="1359"></path><path d="M362.175 164.338l3.857-1.712 312.69 704.297-3.857 1.712z" fill="#231815" p-id="1360"></path><path d="M160.89 377.17l719.13 276.89" fill="#F4F4F4" p-id="1361"></path><path d="M160.148 379.146l1.517-3.938 719.118 276.908-1.517 3.938z" fill="#231815" p-id="1362"></path><path d="M168.31 671.97L872.6 359.26" fill="#F4F4F4" p-id="1363"></path><path d="M167.46 669.993l704.298-312.69 1.712 3.857-704.297 312.69z" fill="#231815" p-id="1364"></path><path d="M382.01 875.18L658.9 156.05" fill="#F4F4F4" p-id="1365"></path><path d="M380.015 874.378L656.923 155.26l3.938 1.516-276.908 719.118z" fill="#231815" p-id="1366"></path><path d="M500.01 230.11a246.35 246.35 0 0 1-58.4-6.72c-44.29-10.78-66-30.51-66.93-31.34l2.86-3.1c0.21 0.2 22 19.93 65.36 30.42 40 9.69 107.18 13.24 199.65-24.88l1.61 3.9c-41.34 17-81.19 27.33-118.46 30.58q-13.03 1.14-25.69 1.14z" fill="#231815" p-id="1367"></path><path d="M848.4 371.04c-43-12.35-80.58-29.07-111.79-49.69-25-16.52-46-35.58-62.4-56.64-28-36-32.75-64.95-32.94-66.16l4.16-0.65c0 0.29 4.86 29.3 32.29 64.46 25.34 32.48 75.73 77 171.84 104.63zM394.35 836.5c0-0.29-3.71-29.47-29.74-65.66-24.06-33.45-72.67-79.9-167.63-111.26l1.32-4c42.45 14 79.38 32.18 109.77 54 24.36 17.49 44.59 37.35 60.14 59 26.56 37 30.19 66.17 30.33 67.39z" fill="#231815" p-id="1368"></path><path d="M197.46 660.89l-3.07-2.88c0.2-0.22 20.11-21.87 30.94-65.12 10-40 14.1-107.07-23.27-199.84l3.91-1.57c16.7 41.41 26.7 81.41 29.63 118.67 2.37 29.9 0.27 58.17-6.25 84-11.14 44.25-31.04 65.82-31.89 66.74z" fill="#231815" p-id="1369"></path><path d="M201.02 394.33l-0.56-4.18c0.29 0 29.41-4.2 65.17-30.83 33-24.6 78.69-74 108.47-169.45l4 1.26c-13.31 42.68-30.87 79.9-52.18 110.65-17.09 24.64-36.61 45.2-58 61.11-36.62 27.17-65.68 31.28-66.9 31.44zM665.43 836.95l-4-1.38c14.72-42.21 33.51-78.84 55.83-108.86 17.9-24.06 38.1-44 60-59.15 37.48-25.94 66.66-29.08 67.89-29.2l0.41 4.19c-0.29 0-29.53 3.22-66.15 28.65-33.74 23.49-81.04 71.32-113.98 165.75zM664.83 845.74c-0.21-0.21-21.31-20.7-64.25-32.71-39.67-11.1-106.65-17-200.4 17.8l-1.51-3.94c41.91-15.57 82.1-24.44 119.46-26.38 30-1.55 58.16 1.33 83.85 8.55 43.88 12.34 64.9 32.83 65.77 33.69z" fill="#231815" p-id="1370"></path><path d="M840.88 641.31c-18.21-40.84-29.58-80.42-33.87-117.55-3.44-29.79-2.36-58.13 3.23-84.22 9.54-44.57 28.66-66.85 29.47-67.77l3.17 2.77c-0.19 0.22-19.31 22.57-28.58 66.18-8.57 40.3-10.25 107.51 30.43 198.88zM517.44 361.7a150.76 150.76 0 0 1-30.18-3.1c-27.29-5.59-45.22-16.54-46-17l2.22-3.59c0.18 0.11 18.15 11.07 44.75 16.49 24.44 5 61.43 6.16 98.8-16.5l2.19 3.61a136.82 136.82 0 0 1-71.78 20.09zM447.18 699.04c-0.05-0.21-4.33-20.82-18.55-43.94-13.08-21.24-37.5-49.05-79.58-60.83l1.13-4.06c43.47 12.17 68.65 40.88 82.12 62.82 14.58 23.74 18.84 44.31 19 45.18zM697.17 585.73c-24.61-37.84-24.57-76-20.21-101.4 4.71-27.44 15.11-45.72 15.55-46.44l3.65 2.1c-0.1 0.18-10.49 18.49-15.07 45.25-4.21 24.59-4.22 61.59 19.62 98.23z" fill="#231815" p-id="1371"></path><path d="M352.25 593.02l-3.7-2c0.1-0.18 10.11-18.7 14.15-45.54 3.7-24.68 3-61.67-21.62-97.81l3.49-2.38c25.38 37.33 26.12 75.51 22.27 101-4.17 27.49-14.17 45.95-14.59 46.73zM598.29 686.81l-4.08-1.06c11.31-43.69 39.52-69.44 61.19-83.34 23.45-15 43.93-19.7 44.79-19.89l0.92 4.11c-0.21 0-20.73 4.74-43.57 19.42-20.98 13.49-48.3 38.45-59.25 80.76z" fill="#231815" p-id="1372"></path><path d="M452.72 695.81l-2.29-3.53c37.85-24.6 76-24.54 101.41-20.16 27.45 4.75 45.71 15.14 46.47 15.58l-2.11 3.65c-0.18-0.1-18.48-10.5-45.23-15.1-24.59-4.21-61.6-4.25-98.25 19.56zM343.32 449.49l-1-4.09c0.2-0.05 20.63-5.15 43.16-20.28 20.72-13.91 47.53-39.41 57.63-81.93l4.11 1c-10.44 43.92-38.13 70.22-59.52 84.55-23.13 15.47-43.52 20.54-44.38 20.75zM697.92 437.66c-44.47-7.72-72.42-33.74-88-54.21-16.9-22.15-23.21-42.18-23.47-43l4-1.25c0.07 0.2 6.41 20.27 22.9 41.84 15.15 19.82 42.25 45 85.31 52.48z" fill="#231815" p-id="1373"></path><path d="M473.77 515.96a41.77 29.15 0 1 0 83.54 0 41.77 29.15 0 1 0-83.54 0Z" fill="#F2584A" p-id="1374"></path><path d="M515.55 546.69c-23.91 0-43.35-13.78-43.35-30.73s19.44-30.73 43.35-30.73 43.34 13.79 43.34 30.73-19.44 30.73-43.34 30.73z m0-58.3c-22.16 0-40.19 12.37-40.19 27.57s18 27.57 40.19 27.57 40.18-12.37 40.18-27.57-18.06-27.57-40.18-27.57z" fill="#231815" p-id="1375"></path><path d="M171.77 364.36s228.24-23.93 294.21 142.4a16 16 0 0 1-3 16.7c-38.75 42.67-239.4 241.48-291.21-159.1z" fill="#F4F4F4" p-id="1376"></path><path d="M314.2 612.55a89.53 89.53 0 0 1-27-4c-59.49-18.67-99-100.72-117.55-243.87l-0.28-2.14 2.15-0.22c0.57-0.07 58.16-5.85 123.05 8.86 38.18 8.66 71.42 22.61 98.78 41.48 34.27 23.63 59.36 55 74.56 93.38a18.25 18.25 0 0 1-3.4 18.85c-20.26 22.32-85.19 87.66-150.31 87.66zM174.14 366.27c18.4 140 56.87 220.16 114.35 238.2 70.87 22.24 150.25-57.47 172.89-82.43a14 14 0 0 0 2.64-14.5c-33.72-85-111.19-118.86-170.24-132.27-57.19-12.99-108.64-9.88-119.64-9z" fill="#231815" p-id="1377"></path><path d="M856.5 358.63s-228.24-23.93-294.21 142.4a16 16 0 0 0 3 16.7c38.75 42.67 239.38 241.48 291.21-159.1z" fill="#F4F4F4" p-id="1378"></path><path d="M714.07 606.82c-65.12 0-130-65.34-150.31-87.67a18.25 18.25 0 0 1-3.43-18.89c15.2-38.37 40.34-69.76 74.56-93.37 27.36-18.87 60.6-32.82 98.78-41.48 64.89-14.71 122.48-8.92 123-8.86l2.15 0.22-0.28 2.14c-18.51 143.15-58.06 225.2-117.55 243.87a89.8 89.8 0 0 1-26.92 4.04z m112.76-247.24c-22.79 0-56.43 1.81-92.34 10-59.05 13.41-136.52 47.24-170.24 132.27a14 14 0 0 0 2.64 14.5c22.64 25 102 104.67 172.89 82.43 57.48-18 95.95-98.17 114.35-238.2-4.09-0.37-13.79-1-27.3-1z" fill="#231815" p-id="1379"></path></svg>