<?xml version="1.0" standalone="no"?><!DOCTYPE svg PUBLIC "-//W3C//DTD SVG 1.1//EN" "http://www.w3.org/Graphics/SVG/1.1/DTD/svg11.dtd"><svg t="1665543138399" class="icon" viewBox="0 0 1024 1024" version="1.1" xmlns="http://www.w3.org/2000/svg" p-id="2063" xmlns:xlink="http://www.w3.org/1999/xlink" width="128" height="128"><path d="M0 0h1024v1024H0z" fill="#21303A" p-id="2064"></path><path d="M338.11 752.45s-16.13 46.32 41.48 90.21c0 0-53 17.07-89.87-45.1 0 0-39.18 15.84 0 81.67 0 0-71.44-62.77-55.31-103.31 0 0-24.33-24.08-2.37-61.57 0 0-29.08-118.86-9.18-148.11 0 0-14-73.15-7-108.81l11.35-4.54s-9.5-107 4.32-115.2c0 0 50.12-144.46 121.84-183.78 0 0 77.78-60.34 156.41-43l23.33 3.66s44.07-41.15 83.82-11c0 0 104.56 18.28 170.23 130.74 0 0 68.27 124.35 67.4 217.61 0 0-5.18 206.63-55.3 295.32 0 0-13.47 12.84 16.77 28.39 0 0-22.46 14.63-44.93-3.66 0 0 2.59 43.89 23.33 56.69 0 0-38 7.31-51.85-35.66 0 0 6.05 50.9-36.29 65.22 0 0 20.2-51 3.46-73.45 0 0 19.71-33.88-12.12-90.06S362.88 706.1 362.88 706.1z" fill="#E29E44" p-id="2065"></path><path d="M304.92 897.53l-17.65-15.51c-3-2.59-70.87-62.92-57.08-105.32-5.27-6.57-20.59-30-2.1-62.91-3.37-14.16-27.18-117.67-9.14-148.3-2-10.76-13.28-75.18-6.69-108.77l0.39-2 10.64-4.3c-0.62-7.55-2.28-29.57-2.81-52-1.09-46.89 3.41-59.12 7.93-63.07 5.1-14.38 53.4-146.22 122.93-184.59 5.67-4.35 81.13-60.66 159.13-43.5l21.51 3.37c8-6.76 49-38.21 86.48-10.53 5 1 29.36 6.42 60.73 23.43 31.75 17.22 76.82 50.1 111.17 108.93 2.86 5.2 68.77 126.36 67.91 219.51-0.21 8.54-5.78 208.64-55.78 297.11l-0.27 0.48-0.4 0.38a7.31 7.31 0 0 0-1.75 6c0.83 5.17 7.1 11 17.66 16.43l5.68 2.92-5.35 3.48c-0.23 0.15-20.55 13-42.41 0.82 1.77 12.73 6.91 37.42 20.73 45.95l8.1 5-9.35 1.8c-0.36 0.07-31.44 5.63-49.17-22.94-1.95 17.18-9.82 42.68-38.48 52.37l-7.58 2.56 2.94-7.44c0.2-0.49 19.24-49.36 3.94-69.86l-1.47-2 1.23-2.11c0.18-0.31 18.12-33-12.14-86.38-24.83-43.84-244.3-5.95-329 12.82l-23.87 44.53c-1.26 4-12.72 45.41 40.3 85.8l5.65 4.3-6.76 2.18c-0.54 0.18-54.44 16.69-92.31-43.66a27.49 27.49 0 0 0-10.61 14.41c-4.86 14.73 0.36 35.62 15.1 60.4z m-85.74-437.42c-5.92 35.23 7.19 104.72 7.33 105.43l0.28 1.51-0.86 1.27c-15.56 22.88 1.74 112.57 9.74 145.15l0.36 1.46-0.76 1.3c-20.15 34.41 0.89 56.15 1.79 57.06l1.72 1.73-0.89 2.27c-10.24 25.74 18.59 62.35 38.06 83.13-7.6-18.06-9.31-33.49-5.09-46 5.08-15.09 17-20.06 17.5-20.26l2.95-1.2 1.63 2.75c27.25 46 63 47 78.21 45-51.72-43.45-37.18-87.49-36.51-89.41l0.23-0.53 25.54-47.88 1.66-0.37c0.76-0.17 76.82-17 155.79-26.83 107.42-13.3 169-7.51 183 17.23 28.37 50.08 17.08 83.05 13.19 91.6 11.85 18.84 3.45 51.81-1.47 67 30.82-16.16 26.54-56.27 26.33-58.09l7.21-1.57c8.78 27.3 27.73 32.78 38.92 33.51-15.37-17.6-17.55-51.48-17.64-53.15l-0.5-8.42 6.54 5.32c13.59 11.07 27.06 8.93 34.56 6.25-9.21-5.8-14.35-12-15.29-18.5a14.9 14.9 0 0 1 3.55-11.84c48.87-87.09 54.55-291.14 54.6-293.14 0.84-91.14-66.27-214.49-67-215.72-63.93-109.47-166.59-128.7-167.62-128.88l-0.88-0.16-0.72-0.54c-36.83-28-78.63 10.34-79 10.73l-1.32 1.23-25.34-4c-76.07-16.83-152.57 41.67-153.31 42.26l-0.49 0.32c-69.66 38.18-119.65 180.31-120.14 181.76l-0.45 1.28-1.16 0.7c-0.69 0.41-6.74 5.53-5.53 57.41 0.63 27.34 3 54 3 54.27l0.24 2.74z" p-id="2066"></path><path d="M742.88 332.6c-95.21-100.11-221.21 1.29-221.21 1.29l-1.6-1.24-1.6 1.24s-126-101.43-221.21-1.32c0 0-51.91 76.92-43.7 156.05 0 0 15.14 136.84 23.07 151.48 45 83.06 150.07 171 243.44 174.25 93.37-3.23 198.48-91.19 243.44-174.25 7.92-14.64 23.07-151.48 23.07-151.48 8.21-79.1-43.7-156.02-43.7-156.02z" fill="#E5CDBD" p-id="2067"></path><path d="M520.07 818.09h-0.13c-43.92-1.52-94.34-22.1-142-57.94-43.48-32.73-81.61-75.84-104.57-118.26-8-14.85-21.94-138.76-23.5-152.84-8.25-79.57 42.17-155.33 44.32-158.52l0.38-0.48c40-42 91.86-55.11 150.06-37.89 37.38 11.07 65.69 31 73.82 37.07l1.62-1.26 1.61 1.26c8.14-6.11 36.45-26 73.83-37.07 58.2-17.22 110.09-4.12 150 37.89l0.39 0.48c2.15 3.19 52.57 78.95 44.32 158.5-1.56 14.1-15.47 138-23.5 152.86-23 42.42-61.09 85.53-104.6 118.26-47.64 35.84-98.06 56.42-142 57.94z m-219.9-483.2c-3.19 4.86-50.67 78.71-42.92 153.34 6.05 54.7 17.08 139.83 22.64 150.1 43.48 80.34 147.66 169 240.18 172.31 92.52-3.28 196.69-92 240.18-172.31 5.56-10.27 16.59-95.4 22.64-150.12 7.78-74.58-39.74-148.43-42.92-153.32-38.37-40.18-86.19-52.2-142.15-35.71-42.24 12.46-73.51 37.35-73.82 37.6l-2.33 1.88-1.62-1.28-1.62 1.29-2.31-1.86c-0.31-0.25-31.58-25.14-73.83-37.6-55.93-16.49-103.75-4.47-142.12 35.68z" p-id="2068"></path><path d="M317.42 374.89s68.91 50.26 164.47 53.34c0 0-3.23 23.6 3.77 24.62 0 0-168.21-11.8-196.89-58 0 0.04 27.37-9.67 28.65-19.96zM711.48 374.89s-68.91 50.26-164.47 53.34c0 0 3.24 23.6-3.76 24.62 0 0 168.2-11.8 196.88-58 0 0.04-27.37-9.67-28.65-19.96z" fill="#4C170B" p-id="2069"></path><path d="M513.43 323.82s-136-98.66-202.34-45.1c0 0-65.47 53.56-45.06 176 0 0-103.72 95.22-24.94 302.09 0 0-69-67.45-94.51-163.09 0 0 2.55-119.87 51-131.35 0 0-43.78-261 113.5-323.91 0.01-0.01 130.09-40.78 202.35 185.36z" fill="#E2934B" p-id="2070"></path><path d="M250.56 771.23l-12.06-11.78c-0.7-0.68-70-69.26-95.5-164.79l-0.14-0.5v-0.53c0.11-4.9 3.06-117.71 50.57-133.93-2-14.19-9.34-72.56-1.76-136.14 5.11-42.92 15.9-79.83 32.06-109.72 20.34-37.63 49.27-64.15 86-78.83l0.27-0.1c1.38-0.43 34.33-10.39 76.66 8 38.61 16.8 92.57 61.62 130.32 179.76l3.44 10.76-9.15-6.63c-1.33-1-134.49-96.37-197.83-45.21-0.62 0.51-63.51 53.84-43.73 172.49l0.33 2-1.48 1.36c-0.25 0.23-25.61 24-41.15 72.35-14.36 44.68-23 120.1 17.17 225.69z m-100.26-178c18.5 68.87 60.19 123.35 81 147.43-33.77-98.81-24.88-170.3-10.84-213.67 14.2-43.85 35.74-67.73 41.57-73.63-10.13-63.18 2.8-107.8 15.51-134.2 14-29.1 30.48-42.78 31.17-43.34 58.4-47.18 165.6 17.32 197.72 38.66-36.5-107.32-86.35-148.75-122.26-164.54-38.68-17-69.71-8.61-71.86-8-79.39 31.86-105.41 116.72-113.25 182.33-8.58 71.76 2.08 136.82 2.19 137.47l0.57 3.42-3.38 0.8c-43.57 10.33-47.87 118.84-48.14 127.31z" p-id="2071"></path><path d="M230.17 413.89c-1-79.74 15-134.5 47.71-162.76 26.84-23.21 54.64-19.09 55.82-18.9l-0.59 3.66c-0.27 0-27.38-4-52.88 18.11-31.33 27.18-47.36 82.45-46.35 159.89z" p-id="2072"></path><path d="M513.43 321.23s-109.41-63.6-156.63-27.89c0 0-35.79 37.21-21.26 118.83 0 0-73.85 63.48-17.76 201.39 0 0-49.13-45-67.29-108.73 0 0 1.82-79.91 36.32-87.56 0 0-42-175.5 70-217.45-0.01 0 105.17-29.35 156.62 121.41z" fill="#E2934B" p-id="2073"></path><path d="M327.42 627.4l-12.14-11.11c-2-1.86-50.12-46.4-68.35-110.44l-0.16-0.54v-0.56c0.07-3.27 2.16-77.74 35.67-90.06-2.36-11.38-9.29-49.42-6.34-90.68 4.68-65.82 32.14-110 79.38-127.66l0.3-0.1c1.12-0.31 27.81-7.51 61.25 4.24 30.63 10.78 72.83 40.26 99.89 119.55l3.2 9.38-8.57-5c-1.08-0.62-107.41-61.71-152.27-28.34-2.6 2.94-33.57 39.78-20.11 115.42l0.37 2.08-1.6 1.38c-0.18 0.15-18.05 15.88-29 47.83-10.11 29.54-16.2 79.44 12.24 149.35z m-73.21-123c12.12 42 38.2 76 53.73 93.56-21.92-63.47-15.61-109.65-5.82-138s24.58-44.39 29.42-49.11c-13.77-81.14 21.09-118.49 22.59-120l0.44-0.39c41.23-31.26 124.83 8.43 152.1 22.81-20.71-55.19-52.27-91.63-91.65-105.64-30.14-10.72-55-4.79-57.06-4.27-44.86 16.88-69.89 57.65-74.42 121.18-3.42 48 6.81 91.43 6.91 91.86l0.87 3.67-3.68 0.82c-25.75 5.7-32.82 61.63-33.43 83.47z" p-id="2074"></path><path d="M526.6 321.23s128.56-89.47 194.87-35.91c0 0 65.46 53.56 45.06 176 0 0 103.72 95.22 24.94 302.09 0 0 69-67.45 94.51-163.09 0 0-2.55-119.87-51-131.35 0 0 43.78-261-113.5-323.91-0.01-0.02-122.61-49.97-194.88 176.17z" fill="#E2934B" p-id="2075"></path><path d="M782 777.82l6-15.75c40.32-105.86 31.51-181.41 17-226.16-15.61-48.18-40.74-71.65-41-71.88l-1.48-1.36 0.33-2c19.78-118.65-43.11-172-43.75-172.51-63.36-51.17-189.14 35.22-190.4 36.1l-9 6.24 3.33-10.42c29-90.66 69.32-148.63 119.93-172.29 43.78-20.46 78.42-6.8 79.87-6.2 36.68 14.67 65.61 41.19 85.95 78.82 16.16 29.89 27 66.8 32.06 109.72 7.58 63.58 0.28 122-1.76 136.14 47.51 16.22 50.46 129 50.57 133.93v0.53l-0.14 0.51c-25.47 95.52-94.8 164.1-95.5 164.78z m-11.5-317.83c5.83 5.9 27.37 29.78 41.57 73.63 14 43.37 22.93 114.85-10.84 213.66 20.85-24.11 62.54-78.61 81-147.42-0.27-8.47-4.57-117-48.15-127.3l-3.37-0.8 0.57-3.42c0.11-0.65 10.77-65.71 2.19-137.47-7.85-65.65-33.9-150.58-113.4-182.39-0.35-0.14-33.36-13-74.17 6.15-46.71 21.94-84.54 75-112.51 157.75 12.43-7.78 36.58-21.86 64.41-32.65 54.21-21 97.77-20.08 126 2.7 0.71 0.58 17.18 14.26 31.19 43.36 12.68 26.4 25.68 71.02 15.51 134.2zM555.24 148.65h-3.71c0-18-19.32-32.45-19.52-32.59l2.2-3c0.86 0.65 21.03 15.75 21.03 35.59zM507.89 234.89l-3.39-1.5c0.25-0.56 24.73-56.87 0.21-90l3-2.21c25.79 34.82 1.24 91.28 0.18 93.71zM494.01 203.75l-3.67-0.52c6.09-43.06-51.78-64.64-52.36-64.86l1.26-3.48c0.62 0.22 61.28 22.82 54.77 68.86zM599.86 159.06l-3.69-0.42c3.81-33.43 18.61-55.19 19.24-56.1l3 2.11c-0.1 0.24-14.85 21.95-18.55 54.41z" p-id="2076"></path><path d="M797.34 373.16l-3.7-0.13c2-58.47-17.6-101.23-58.29-127.09-30.42-19.34-61.89-21.46-62.21-21.48l0.23-3.7c1.31 0.08 32.62 2.17 63.84 22 28.85 18.26 62.7 55.74 60.13 130.4zM191.92 638.55c-8.05-70.1-0.05-109.86 0-110.26l3.63 0.76c-0.08 0.39-7.95 39.64 0 109.08zM843.31 639.02l-3.45-1.35c19.81-50.78-6-94.42-6.24-94.86l3.18-1.92c0.27 0.45 27.01 45.6 6.51 98.13z" p-id="2077"></path><path d="M526.6 321.78s112.86-60.12 158.07-21.89c0 0 22.06 33.31 3.1 114 0 0 70.28 67.41 6.75 202.06 0 0 51.51-42.22 73.12-104.89 0 0 2.54-79.9-31.49-89.42 0 0 63.15-167.15-46.38-215.14-0.01 0.01-103.57-32.45-163.17 115.28z" fill="#E2934B" p-id="2078"></path><path d="M684.14 629.26l7-14.88c61.67-130.73-5.28-197.15-6-197.8l-1.47-1.47 0.48-2.06c17.18-73.11 0-106.68-2.34-110.71-43.09-35.38-152.36 22.13-153.46 22.71l-9 4.79 3.82-9.44c31.33-77.67 75.08-105.51 106.26-115.19 34-10.58 60.34-2.58 61.44-2.24l0.38 0.14c46.31 20.29 69.29 64.94 66.48 129.13-1.77 40.4-13 76-16.86 87.18 32.53 14.4 30.57 88.51 30.46 91.77v0.56l-0.19 0.53c-21.7 62.94-72.13 104.8-74.27 106.55z m7.69-216.48c4.59 5 18.44 21.75 26.7 50.64s12 75.28-13.34 137.46c16.46-16.64 44.36-49.17 58.75-90.49 0.59-21.83-3.42-78.07-28.8-85.17l-3.9-1.09 1.43-3.79c0.16-0.41 15.64-41.92 17.66-88.59 2.65-61.55-18.15-102.51-61.85-121.75-2.25-0.65-26.7-7.19-57.26 2.42-40.1 12.61-73.6 47.63-97.3 101.54 28.18-13.56 113.7-50.26 153.14-16.9l0.4 0.34 0.29 0.44c0.92 1.41 22.37 35.05 4.08 114.94zM326.24 274.63l-3.1-2c8.82-13.56 20.68-21.88 35.24-24.71 34.22-6.65 71.23 18.86 72.79 19.95l-2.12 3c-0.37-0.26-37.31-25.69-70-19.34-13.5 2.65-24.55 10.42-32.81 23.1z" p-id="2079"></path><path d="M598.81 268.89l-1.59-3.35c3-1.43 74.41-34.71 98 0.65l-3.08 2.06c-21.83-32.68-92.62 0.34-93.33 0.64zM524.75 280.07c-1.28-33.18 20.92-80.86 21.85-82.87l3.36 1.58c-0.23 0.48-22.75 48.83-21.5 81.15zM257.36 725.45c-20.64-29.16-6.85-96.44-6.26-99.29l3.63 0.76c-0.14 0.68-14.05 68.55 5.65 96.39z" p-id="2080"></path><path d="M292.38 691.05s-11.9 79.92 18.71 102" fill="#DAA454" p-id="2081"></path><path d="M310 794.57c-31.16-22.5-19.94-100.48-19.45-103.79l3.67 0.54c-0.12 0.79-11.39 79.06 17.95 100.25z" p-id="2082"></path><path d="M790.58 548.65s25.5 88 0 142.4" fill="#DAA454" p-id="2083"></path><path d="M792.25 691.89l-3.35-1.58c24.91-53.14 0.15-140.22-0.1-141.09l3.56-1c1.05 3.54 25.4 89.2-0.11 143.67z" p-id="2084"></path><path d="M756.57 665.55s15.3 71.56-4.25 97.84" fill="#DAA454" p-id="2085"></path><path d="M753.81 764.5l-3-2.22c18.83-25.3 4.08-95.64 3.93-96.35l3.62-0.77c0.65 2.95 15.31 72.73-4.55 99.34z" p-id="2086"></path><path d="M473.09 532.89l-13.28 12.65-83.14 5.83c-18-7.42-37.12-17.34-49.24-33.18-8.67-11.33-10.63-26.79-8.68-40.66 1.19-8.46 8.4-13.42 15.58-16.93 13-6.34 28.06-9.19 42.34-10.71 37-4.66 96.4 38.49 96.4 38.49l2.65 10.74" fill="#FFFFFF" p-id="2087"></path><path d="M376.67 555.08a3.73 3.73 0 0 1-1.41-0.28c-16.59-6.83-37.41-16.91-50.76-34.36-8.33-10.88-11.75-26.71-9.4-43.42 1.51-10.72 10.78-16.4 17.62-19.75 11.48-5.61 25.33-9.13 43.58-11.06 37.94-4.79 96.5 37.38 99 39.18a3.68 3.68 0 0 1 1.42 2.11l3.54 14.33-7.2 1.78-3.21-13c-8.18-5.72-60.18-41.12-92.7-37.04-17.43 1.85-30.49 5.14-41.17 10.36-8.58 4.2-12.76 8.55-13.54 14.12-2.07 14.76 0.82 28.57 8 37.89 12.06 15.76 31.28 25.2 46.9 31.67l80.88-5.72 15-14.28 5.12 5.37-16 15.2a3.71 3.71 0 0 1-2.3 1z" p-id="2088"></path><path d="M346.23 504.05a58.13 39.48 0 1 0 116.26 0 58.13 39.48 0 1 0-116.26 0Z" fill="#87ABBF" p-id="2089"></path><path d="M415.25 500.46m-32.44 0a32.44 32.44 0 1 0 64.88 0 32.44 32.44 0 1 0-64.88 0Z" fill="#171315" p-id="2090"></path><path d="M395.31 485.89m-8.1 0a8.1 8.1 0 1 0 16.2 0 8.1 8.1 0 1 0-16.2 0Z" fill="#FFFFFF" p-id="2091"></path><path d="M559.25 536.24l13.28 12.65 83.14 5.82c5.94 0.42 18.5-8.49 23.86-11.64a107.77 107.77 0 0 0 23-17.48c13-13.46 28.8-40.47 11.23-57.25-14-13.34-40.07-13.59-58.07-15.1-37-4.67-96.4 38.49-96.4 38.49l-2.65 10.73" fill="#FFFFFF" p-id="2092"></path><path d="M656.07 558.43h-0.67l-83.13-5.83a3.7 3.7 0 0 1-2.29-1l-16-15.2 5.11-5.38 15 14.29 81.84 5.74c3.61 0.27 13.19-5.84 17.82-8.76 1.49-0.94 2.8-1.77 3.85-2.38a103.43 103.43 0 0 0 22.19-16.87c8.46-8.73 18.25-23.61 18-36.8a20.9 20.9 0 0 0-6.66-15.19c-11.37-10.86-32.31-12.37-49.14-13.58-2.32-0.17-4.55-0.33-6.68-0.51-32.57-4.11-84.65 31.29-92.82 37l-3.21 13-7.2-1.78 3.59-14.29a3.68 3.68 0 0 1 1.42-2.11c2.47-1.8 61-44 99.05-39.17 1.94 0.16 4.15 0.32 6.43 0.48 18 1.3 40.43 2.92 53.73 15.62a28.06 28.06 0 0 1 8.95 20.4c0.3 15.46-10.18 31.89-20.08 42.11-6.24 6.45-14 12.37-23.77 18.1-1 0.58-2.23 1.37-3.64 2.26-8.6 5.36-16.18 9.85-21.69 9.85z" p-id="2093"></path><path d="M569.85 507.39a56.31 39.48 0 1 0 112.62 0 56.31 39.48 0 1 0-112.62 0Z" fill="#87ABBF" p-id="2094"></path><path d="M617.09 503.8m-32.44 0a32.44 32.44 0 1 0 64.88 0 32.44 32.44 0 1 0-64.88 0Z" fill="#171315" p-id="2095"></path><path d="M628.93 485.47m-9.02 0a9.02 9.02 0 1 0 18.04 0 9.02 9.02 0 1 0-18.04 0Z" fill="#FFFFFF" p-id="2096"></path><path d="M514.75 642.51c-6.73 0-11.57-2.17-14.43-6.5-9.94-15 11.57-50.47 14.05-54.46l6.3 3.92c-8.41 13.52-19.7 38.09-14.16 46.45 1.91 2.89 6.34 3.82 13.15 2.76l1.14 7.32a39.08 39.08 0 0 1-6.05 0.51zM443.67 725.25a3.39 3.39 0 0 1-2.64-1.15 3.94 3.94 0 0 1-1-3.77 3.69 3.69 0 0 1 4.32-2.62c1.15-0.27 3.41-0.94 5.62-1.59 21.28-6.29 86-25.42 143.15 1.87a3.71 3.71 0 1 1-3.19 6.69c-54.54-26.06-117.26-7.54-137.86-1.45-4.53 1.32-6.9 2.02-8.4 2.02z" p-id="2097"></path></svg>