<?xml version="1.0" standalone="no"?><!DOCTYPE svg PUBLIC "-//W3C//DTD SVG 1.1//EN" "http://www.w3.org/Graphics/SVG/1.1/DTD/svg11.dtd"><svg t="1665543156241" class="icon" viewBox="0 0 1024 1024" version="1.1" xmlns="http://www.w3.org/2000/svg" p-id="2256" xmlns:xlink="http://www.w3.org/1999/xlink" width="128" height="128"><path d="M0 0h1024v1024H0z" fill="#21303A" p-id="2257"></path><path d="M860.12 517.59c0 97.95-26.39 195.38-89.88 260.25-65.31 66.73-169.14 99.52-269.89 99.52-104.24 0-205.78-41.79-271.49-112.63-59.53-64.19-88.28-152.69-88.28-247.14 0-198.7 161.09-359.77 359.77-359.77s359.77 161.07 359.77 359.77z" fill="#2c2c2c" p-id="2258"></path><path d="M208.67 277.89s63.29 85.3 99.06 101.81c0 0 151.9 11.56 192.61 112.88 0 0-14.15 12.65-19.28 18.73-60.21 71.41-183.9 76.68-240.56-2.91-15.55-21.85-25.88-47.69-33.69-73.21-15.69-51.3-17.04-106.62 1.86-157.3zM820.3 277.89s-63.29 85.3-99.06 101.81c0 0-151.9 11.56-192.61 112.88 0 0 14.16 12.65 19.28 18.73 60.21 71.41 183.91 76.68 240.57-2.91 15.55-21.85 25.88-47.69 33.69-73.21 15.69-51.3 17.04-106.62-1.87-157.3z" fill="#FFFFFF" p-id="2259"></path><path d="M166.67 664s319-142.56 667.58 7.14c0.09 0.4-16 50.72-52.26 93.88 0 0-394.56-56.67-555.77-3.48-0.04 0-39.32-42.86-59.55-97.54z" fill="#EF1B1B" p-id="2260"></path><path d="M226.18 761.54l9.18-57.07 40.75 45 21.77-57 33.76 50 28.38-56 24.75 52.94 25.47-50.52 30.27 46.09 24.76-16.32 23.4 17.68 40-45.17 26.75 41 29.13-44.25 19 53.19 46.12-64.62 17.29 75.67 51.5-64 11 62.59 42.65-38-8.31 50.86 31.82-30.24-13.63 31.66s-345.61 38.09-555.81-3.49z" fill="#FFFFFF" p-id="2261"></path><path d="M558.02 634.89c12.29 17.62 26.3 34.18 40.82 50 29.7 32.3 63.4 62.19 102.16 83.16 18.75 10.14 38.85 18.11 59.88 21.93a147.11 147.11 0 0 0 31.14 2.4c54.18-1.74 113.35 17.84 148.07 61.16 27.62 34.47 30.08 77.07 16.8 117.88-49-42.06-72.72-94.74-139.1-96-32.64-0.61-64.27 11.47-96.59 15.09-60.53 6.78-124.3-0.29-178.7-29.05a228.36 228.36 0 0 1-34.78-22.59c-25.56-20.17-52.68-45.16-72-71.54-17.43-23.76-27.53-53.39-18.57-85.82 7.63-27.63 111.9-42 138.49-46.61" fill="#EF1B1B" p-id="2262"></path><path d="M166.67 664l48.7 47.8 13.91-58.86 40.67 50.38 20.72-70.43 36.53 59.85 23.85-77.5L382.96 678l25.18-68.8 32.34 63.36 27.51-69 32.06 73.61 28.62-67.94 34.32 67.95 35.08-66 21.33 75.15 45.2-60.2 18.24 65.11 45.93-49.79 20.22 62.44 38.9-39.05 2.78 50.4 43.56-44.1S488.52 499.69 166.67 664z" fill="#FFFFFF" p-id="2263"></path><path d="M503.79 699.89s70.17 86.41 142.4 107.73" fill="#BF2121" p-id="2264"></path></svg>