<?xml version="1.0" standalone="no"?><!DOCTYPE svg PUBLIC "-//W3C//DTD SVG 1.1//EN" "http://www.w3.org/Graphics/SVG/1.1/DTD/svg11.dtd"><svg t="1665630821863" class="icon" viewBox="0 0 1024 1024" version="1.1" xmlns="http://www.w3.org/2000/svg" p-id="1560" xmlns:xlink="http://www.w3.org/1999/xlink" width="128" height="128"><path d="M508 672H244c-90.4 0-164-73.6-164-164s73.6-164 164-164h264c90.4 0 164 73.6 164 164s-73.6 164-164 164z" fill="#C3D2FB" p-id="1561"></path><path d="M692.8 672H498.4C352 672 232 552 232 405.6v-51.2C232 208 352 88 498.4 88 660 88 792 220 792 381.6v191.2c0 54.4-44.8 99.2-99.2 99.2z" fill="#7094F3" p-id="1562"></path><path d="M488 444a228 228 0 1 0 456 0 228 228 0 1 0-456 0z" fill="#386BF3" p-id="1563"></path><path d="M520 839.2L491.2 776l28.8-24 28.8 24m-34.4 65.6l-69.6-6.4-6.4-36.8 36-13.6m51.2 56.8l40-56.8 36 13.6-6.4 36.8M520 848.8L491.2 912l28.8 24 28.8-24m-34.4-65.6l-40 56.8-36-12.8 6.4-37.6m80.8-6.4l69.6 6.4 6.4 37.6-36 12.8M328 820l-22.4-48.8L328 752l22.4 19.2m-27.2 51.2l-53.6-5.6L264 788l28-10.4m40.8 44.8l31.2-44.8 28 10.4-5.6 28.8M328 828l-22.4 48.8L328 896l22.4-19.2m-27.2-51.2L292 870.4 264 860l5.6-28.8m63.2-5.6l53.6 5.6L392 860l-28 10.4M144 820l-22.4-48.8L144 752l22.4 19.2m-27.2 51.2l-53.6-5.6L80 788l28-10.4m40.8 44.8l31.2-44.8 28 10.4-5.6 28.8M144 828l-22.4 48.8L144 896l22.4-19.2m-27.2-51.2L108 870.4 80 860l5.6-28.8m63.2-5.6l53.6 5.6L208 860l-28 10.4M712 820l-22.4-48.8L712 752l22.4 19.2m-27.2 51.2l-53.6-5.6L648 788l28-10.4m40.8 44.8l31.2-44.8 28 10.4-5.6 28.8M712 828l-22.4 48.8L712 896l22.4-19.2m-27.2-51.2L676 870.4 648 860l5.6-28.8m63.2-5.6l53.6 5.6L776 860l-28 10.4M888 820l-22.4-48.8L888 752l22.4 19.2m-27.2 51.2l-53.6-5.6L824 788l28-10.4m40.8 44.8l31.2-44.8 28 10.4-5.6 28.8M888 828l-22.4 48.8L888 896l22.4-19.2m-27.2-51.2L852 870.4 824 860l5.6-28.8m63.2-5.6l53.6 5.6L952 860l-28 10.4" fill="#3D4265" p-id="1564"></path></svg>