<?xml version="1.0" standalone="no"?><!DOCTYPE svg PUBLIC "-//W3C//DTD SVG 1.1//EN" "http://www.w3.org/Graphics/SVG/1.1/DTD/svg11.dtd"><svg t="1665630689354" class="icon" viewBox="0 0 1024 1024" version="1.1" xmlns="http://www.w3.org/2000/svg" p-id="1074" xmlns:xlink="http://www.w3.org/1999/xlink" width="128" height="128"><path d="M344 804a144 76 0 1 0 288 0 144 76 0 1 0-288 0z" fill="#386BF3" p-id="1075"></path><path d="M92 588a284 168 0 1 0 568 0 284 168 0 1 0-568 0z" fill="#7094F3" p-id="1076"></path><path d="M376 440c145.6 0 264 66.4 264 148S521.6 736 376 736s-264-66.4-264-148 118.4-148 264-148m0-40c-170.4 0-304 82.4-304 188s133.6 188 304 188 304-82.4 304-188-133.6-188-304-188z" fill="#FFFFFF" p-id="1077"></path><path d="M124 336a408 228 0 1 0 816 0 408 228 0 1 0-816 0z" fill="#C3D2FB" p-id="1078"></path><path d="M532 128c214.4 0 388 92.8 388 208S746.4 544 532 544s-388-92.8-388-208 173.6-208 388-208m0-40c-240 0-428 108.8-428 248s188 248 428 248 428-108.8 428-248S772 88 532 88z" fill="#FFFFFF" p-id="1079"></path></svg>