<?xml version="1.0" standalone="no"?><!DOCTYPE svg PUBLIC "-//W3C//DTD SVG 1.1//EN" "http://www.w3.org/Graphics/SVG/1.1/DTD/svg11.dtd"><svg t="1665543128062" class="icon" viewBox="0 0 1024 1024" version="1.1" xmlns="http://www.w3.org/2000/svg" p-id="1892" xmlns:xlink="http://www.w3.org/1999/xlink" width="128" height="128"><path d="M0 0h1024v1024H0z" fill="#21303A" p-id="1893"></path><path d="M809.92 566.63c0 176.82-135.83 316-299 316s-292-139.21-292-316 132.29-320.17 295.49-320.17 295.51 143.35 295.51 320.17z" fill="#F3DF6B" p-id="1894"></path><path d="M510.88 885.56c-79.64 0-151-29.47-207.32-90.49s-87.33-142.18-87.33-228.44 31-167.42 87.33-228.45 131.2-94.62 210.85-94.62 154.53 33.61 210.85 94.62 87.34 142.15 87.34 228.45-31 167.42-87.34 228.44-134.73 90.49-214.38 90.49z m3.53-636.2c-161.47 0-292.83 142.33-292.83 317.27s127.83 313.13 289.3 313.13 296.37-138.19 296.37-313.13-131.37-317.27-292.84-317.27z" p-id="1895"></path><path d="M485.01 597.3l-5.23-1.27c31.63-152.63 3.74-347.14 3.45-349.14l5.29-0.9c0.28 1.97 28.34 197.61-3.51 351.31zM547.75 624.98c-40.72-147.89-5.74-375-5.38-377.31l5.27 1c-0.35 2.27-35.12 228.1 5.24 374.68z" p-id="1896"></path><path d="M425.96 879.2s-101.19-131 13.88-155l59.09 26.93h31.21s82.78-58.85 114.08-35.91-14 163.24-42.58 164.24l-84.17 14.67z" fill="#FFF4DC" p-id="1897"></path><path d="M517.57 897.15l-0.76-0.21-92.35-15.16-0.56-0.72c-2.23-2.9-54.59-71.49-38.8-119.52 6.77-20.57 25-34.09 54.24-40.17l0.8-0.16 59.33 27h29.88c8.59-6 85.14-58.3 116.37-35.41 21.14 15.5 8.28 71.09 3.83 87.76-10.62 39.87-30.26 80.53-47.41 81.76z m-90.1-20.53l89.91 14.49 83.79-14.51h0.39c12.34-0.43 31.56-35.24 42.85-77.59 10.85-40.7 10.19-72.64-1.69-81.34-29.48-21.6-110.3 35.35-111.11 35.93l-0.67 0.47h-32.55l-58.83-26.81c-26.76 5.73-43.38 17.92-49.41 36.24-13.96 42.39 31.8 105.71 37.32 113.12z" p-id="1898"></path><path d="M871.27 257.43s27.65 233.08-55.88 373.07c0 0-75 112.64-85.22 162.5 0 0-64.09 89.85-131.24 84.26 0 0 40.9-78.72 27.27-106.42 0 0-26.8-49.92-98.39-20.37 0 0-60.12-162.45 127.36-236.31 0 0 166.67-94.27 216.1-256.73z" fill="#797D7F" p-id="1899"></path><path d="M158.67 246.46s-29.13 244.05 54.4 384c0 0 75 112.64 85.22 162.5 0 0 64.09 89.85 131.24 84.26 0 0-40.91-78.72-27.27-106.42 0 0 26.8-49.92 98.39-20.37 0 0 60.12-162.45-127.37-236.31 0.01 0.04-165.17-105.16-214.61-267.66z" fill="#797D7F" p-id="1900"></path><path d="M149.11 190.61s-49.73 275.67 40.5 426.89c0 0 81 121.68 92.06 175.54 0 0 71.74 92.19 144.29 86.16 0 0-46.7-80.17-32-110.1 0 0 27.61-49.87 104.94-18 0 0 66.29-179.53-136.24-259.33 0.01 0.05-160.16-125.62-213.55-301.16z" fill="#0F1B28" p-id="1901"></path><path d="M419.18 882.38c-35.89 0-70.71-22.3-94.19-41.69a330.58 330.58 0 0 1-45.32-45.8l-0.43-0.54-0.14-0.7c-10.8-52.67-90.81-173.26-91.62-174.48l-0.07-0.12c-47-78.72-55.58-191.24-54.52-271.77 1.14-87.07 13.51-156.56 13.63-157.25l2-10.89 3.15 10.56c27.41 90.13 83.72 166.8 126.13 215.26 43.94 50.2 82.43 81.29 86.18 84.28 66.88 26.43 111.78 66.47 133.49 119 29.82 72.19 4.23 143.26 4 144l-1 2.65-2.46-1c-30.76-12.7-58.11-13.82-79.07-3.24-15.24 7.69-22.09 19.06-22.6 19.93-13.7 28.17 31.45 106.31 31.91 107.1l2.37 4.07-4.43 0.37q-3.52 0.25-7.01 0.26z m-135-90.68c5.82 7.26 71.14 86.58 137.18 84.85-9.54-17.21-43.16-81.46-29.7-108.81l0.07-0.13c0.3-0.54 7.52-13.32 24.63-22.07 15.26-7.81 41.6-13.7 81 1.87 4.21-13.35 20.9-74.71-4.8-136.85-21.14-51.12-65.13-90.15-130.76-116l-0.35-0.14-0.3-0.24c-0.41-0.31-40.79-32.19-87.14-85.13-41.14-47-95.24-120.31-124-206.87a1101.56 1101.56 0 0 0-11.76 145.31c-1 79.68 7.42 190.9 53.62 268.38 3.8 5.79 80.73 121.89 92.27 175.83z" p-id="1902"></path><path d="M879.97 190.61s49.7 275.67-40.51 426.89c0 0-81 121.68-92.06 175.54 0 0-73.21 92.48-145.76 86.44 0 0 48.18-80.45 33.45-110.38 0 0-27.62-49.87-104.95-18 0 0-66.28-179.53 136.25-259.33 0 0.05 160.18-125.62 213.58-301.16z" fill="#111E2B" p-id="1903"></path><path d="M608.4 882.66c-2.32 0-4.64-0.09-7-0.29l-4.49-0.37 2.45-4.1c0.47-0.79 47.06-79.21 33.36-107.35-0.48-0.84-7.34-12.22-22.6-19.93-21-10.58-48.3-9.46-79.07 3.24l-2.38 1.03-1-2.65c-0.26-0.71-25.84-71.78 4-144 21.71-52.55 66.62-92.59 133.49-119 3.75-3 42.24-34.08 86.18-84.28 42.33-48.46 98.67-125.13 126.08-215.26l3.25-10.54 2 10.89c0.13 0.69 12.49 70.18 13.64 157.25 0.97 80.53-7.64 193.05-54.64 271.77l-0.08 0.12c-0.81 1.22-80.82 121.82-91.62 174.48l-0.14 0.71-0.44 0.55a339.6 339.6 0 0 1-46.05 45.96c-23.81 19.4-59 41.77-94.94 41.77z m-2.05-5.83c66.08 1.69 132.62-77.83 138.59-85.15 11.55-53.94 88.45-170 92.31-175.82 46.2-77.48 54.66-188.7 53.63-268.38a1105.15 1105.15 0 0 0-11.76-145.31c-28.78 86.56-82.89 159.88-124 206.87-46.36 52.94-86.74 84.82-87.14 85.13l-0.31 0.24-0.35 0.14c-65.65 25.86-109.65 64.89-130.78 116.01-25.7 62.14-9 123.5-4.8 136.85 39.41-15.57 65.75-9.68 81-1.87 17.11 8.75 24.33 21.53 24.63 22.07l0.07 0.13c13.48 27.36-21.24 91.8-31.09 109.09zM466.85 552.57a2.57 2.57 0 0 1-2-1 3.07 3.07 0 0 1 0.26-4.09c17.72-16.8-0.36-50.53-0.54-50.86a3 3 0 0 1 0.94-4 2.56 2.56 0 0 1 3.66 1c0.85 1.55 20.53 38.21-0.54 58.19a2.54 2.54 0 0 1-1.78 0.76zM555.88 550.71a2.55 2.55 0 0 1-1.81-0.76c-13.39-13.33-2.07-53.07-0.74-57.55a2.64 2.64 0 0 1 3.37-1.88 3 3 0 0 1 1.73 3.65c-3.34 11.22-10 42.33-0.74 51.5a3.07 3.07 0 0 1 0.16 4.1 2.59 2.59 0 0 1-1.97 0.94z" p-id="1904"></path><path d="M592.13 840.49a2.53 2.53 0 0 1-1.55-0.53c-35.36-27.17-74.85-25.73-101.74-19.75a178.68 178.68 0 0 0-50.8 19.89 2.57 2.57 0 0 1-3.66-1.05 3 3 0 0 1 1-4 180.15 180.15 0 0 1 52.24-20.52c28-6.26 69.11-7.75 106.09 20.66a3.05 3.05 0 0 1 0.63 4 2.59 2.59 0 0 1-2.21 1.3z" p-id="1905"></path><path d="M445.77 663.71c-4.76 9.6-10.43 22.8-85.42 12.62-74.5-10.11-58.74-54.34-56.37-63.61 6.18-24.23 41.07-35.14 78.25-24.28s74.52 53.13 63.54 75.27zM575.43 663.71c4.76 9.6 10.43 22.8 85.42 12.62 74.5-10.11 58.74-54.34 56.37-63.61-6.18-24.23-41.07-35.14-78.25-24.28s-74.52 53.13-63.54 75.27z" fill="#FFFFFF" p-id="1906"></path></svg>