<?xml version="1.0" standalone="no"?><!DOCTYPE svg PUBLIC "-//W3C//DTD SVG 1.1//EN" "http://www.w3.org/Graphics/SVG/1.1/DTD/svg11.dtd"><svg t="1666660791744" class="icon" viewBox="0 0 1024 1024" version="1.1" xmlns="http://www.w3.org/2000/svg" p-id="2468" xmlns:xlink="http://www.w3.org/1999/xlink" width="128" height="128"><path d="M937.737 422.321l-43.164-43.113-25.436 25.435-18.783-18.804 25.432-25.452-224.859-224.842c-4.717-4.732-12.386-4.697-17.1 0.035l-5.166 5.167c-55.202-43.026-114.315-69.992-167.489-78.338l-9.641 9.62 122.932 122.916-45.009 45.009c-4.717 4.732-4.75 12.384-0.037 17.079l114.574 114.601-33.946 33.958-23.393-23.393-468.86 450.356 128.963 129.037 450.393-468.896-23.427-23.427 33.95-33.938 46.571 46.583 25.436-25.433 18.82 18.802-25.436 25.451 43.128 43.113a12.124 12.124 0 0 0 17.1-0.054l104.372-104.375c4.719-4.733 4.752-12.384 0.075-17.097zM664.45 459.996l-45.142-45.142 33.951-33.951 45.136 45.147-33.945 33.946z" p-id="2469"></path></svg>